<?xml version="1.0" encoding="UTF-8" standalone="no"?>
<svg
   xmlns:dc="http://purl.org/dc/elements/1.1/"
   xmlns:cc="http://creativecommons.org/ns#"
   xmlns:rdf="http://www.w3.org/1999/02/22-rdf-syntax-ns#"
   xmlns:svg="http://www.w3.org/2000/svg"
   xmlns="http://www.w3.org/2000/svg"
   xmlns:sodipodi="http://sodipodi.sourceforge.net/DTD/sodipodi-0.dtd"
   xmlns:inkscape="http://www.inkscape.org/namespaces/inkscape"
   inkscape:version="1.0 (1.0+r73+1)"
   sodipodi:docname="boundary_MUI1.svg"
   id="svg5442"
   viewBox="0 0 18 18"
   height="18pt"
   width="18pt"
   overflow="visible"
   version="1.1"
   fill-rule="evenodd"
   stroke-linejoin="bevel"
   stroke-width="0.501">
  <metadata
     id="metadata5446">
    <rdf:RDF>
      <cc:Work
         rdf:about="">
        <dc:format>image/svg+xml</dc:format>
        <dc:type
           rdf:resource="http://purl.org/dc/dcmitype/StillImage" />
        <dc:title></dc:title>
      </cc:Work>
    </rdf:RDF>
  </metadata>
  <sodipodi:namedview
     inkscape:current-layer="svg5442"
     inkscape:window-maximized="1"
     inkscape:window-y="0"
     inkscape:window-x="0"
     inkscape:cy="21.719333"
     inkscape:cx="32.708"
     inkscape:zoom="18.883022"
     showgrid="false"
     id="namedview5444"
     inkscape:window-height="1056"
     inkscape:window-width="1920"
     inkscape:pageshadow="2"
     inkscape:pageopacity="0"
     guidetolerance="10"
     gridtolerance="10"
     objecttolerance="10"
     borderopacity="1"
     bordercolor="#666666"
     pagecolor="#ffffff" />
  <defs
     id="defs5412">
    <marker
       orient="auto"
       overflow="visible"
       markerHeight="1"
       markerWidth="1"
       viewBox="0 0 1 1"
       markerUnits="strokeWidth"
       id="DefaultArrow2">
      <!-- REF_ARROW_STRAIGHT (-2) -->
      <g
         id="g5337"
         transform="scale(0.0092592592)">
        <!-- 1/108 -->
        <path
           id="path5335"
           d="M -9 54 L -9 -54 L 117 0 z" />
      </g>
    </marker>
    <marker
       orient="auto"
       overflow="visible"
       markerHeight="1"
       markerWidth="1"
       viewBox="0 0 1 1"
       markerUnits="strokeWidth"
       id="DefaultArrow3">
      <!-- REF_ARROW_ANGLED -->
      <g
         id="g5342"
         transform="scale(0.0092592592)">
        <path
           id="path5340"
           d="M -27 54 L -9 0 L -27 -54 L 135 0 z" />
      </g>
    </marker>
    <marker
       orient="auto"
       overflow="visible"
       markerHeight="1"
       markerWidth="1"
       viewBox="0 0 1 1"
       markerUnits="strokeWidth"
       id="DefaultArrow4">
      <!-- REF_ARROW_ROUNDED -->
      <g
         id="g5347"
         transform="scale(0.0092592592)">
        <path
           id="path5345"
           d="M -9,0 L -9,-45 C -9,-51.708 2.808,-56.580 9,-54 L 117,-9 C 120.916,-7.369 126.000,-4.242 126,0 C 126,4.242 120.916,7.369 117,9 L 9,54 C 2.808,56.580 -9,51.708 -9,45 z" />
      </g>
    </marker>
    <marker
       orient="auto"
       overflow="visible"
       markerHeight="1"
       markerWidth="1"
       viewBox="0 0 1 1"
       markerUnits="strokeWidth"
       id="DefaultArrow5">
      <!-- REF_ARROW_SPOT -->
      <g
         id="g5352"
         transform="scale(0.0092592592)">
        <path
           id="path5350"
           d="M -54, 0 C -54,29.807 -29.807,54 0,54 C 29.807,54 54,29.807 54,0 C 54,-29.807 29.807,-54 0,-54 C -29.807,-54 -54,-29.807 -54,0 z" />
      </g>
    </marker>
    <marker
       orient="auto"
       overflow="visible"
       markerHeight="1"
       markerWidth="1"
       viewBox="0 0 1 1"
       markerUnits="strokeWidth"
       id="DefaultArrow6">
      <!-- REF_ARROW_DIAMOND -->
      <g
         id="g5357"
         transform="scale(0.0092592592)">
        <path
           id="path5355"
           d="M -63,0 L 0,63 L 63,0 L 0,-63 z" />
      </g>
    </marker>
    <marker
       orient="auto"
       overflow="visible"
       markerHeight="1"
       markerWidth="1"
       viewBox="0 0 1 1"
       markerUnits="strokeWidth"
       id="DefaultArrow7">
      <!-- REF_ARROW_FEATHER -->
      <g
         id="g5362"
         transform="scale(0.0092592592)">
        <path
           id="path5360"
           d="M 18,-54 L 108,-54 L 63,0 L 108,54 L 18, 54 L -36,0 z" />
      </g>
    </marker>
    <marker
       orient="auto"
       overflow="visible"
       markerHeight="1"
       markerWidth="1"
       viewBox="0 0 1 1"
       markerUnits="strokeWidth"
       id="DefaultArrow8">
      <!-- REF_ARROW_FEATHER2 -->
      <g
         id="g5367"
         transform="scale(0.0092592592)">
        <path
           id="path5365"
           d="M -36,0 L 18,-54 L 54,-54 L 18,-18 L 27,-18 L 63,-54 L 99,-54 L 63,-18 L 72,-18 L 108,-54 L 144,-54 L 90,0 L 144,54 L 108,54 L 72,18 L 63,18 L 99,54 L 63,54 L 27,18 L 18,18 L 54,54 L 18,54 z" />
      </g>
    </marker>
    <marker
       orient="auto"
       overflow="visible"
       markerHeight="1"
       markerWidth="1"
       viewBox="0 0 1 1"
       markerUnits="strokeWidth"
       id="DefaultArrow9">
      <!-- REF_ARROW_HOLLOWDIAMOND -->
      <g
         id="g5372"
         transform="scale(0.0092592592)">
        <path
           id="path5370"
           d="M 0,45 L -45,0 L 0, -45 L 45, 0 z M 0, 63 L-63, 0 L 0, -63 L 63, 0 z" />
      </g>
    </marker>
    <filter
       id="StainedFilter">
      <feBlend
         id="feBlend5375"
         result="blend"
         in="SourceGraphic"
         in2="BackgroundImage"
         mode="multiply" />
      <feComposite
         id="feComposite5377"
         result="comp"
         operator="in"
         in2="SourceAlpha"
         in="blend" />
    </filter>
    <filter
       id="BleachFilter">
      <feBlend
         id="feBlend5380"
         result="blend"
         in="SourceGraphic"
         in2="BackgroundImage"
         mode="screen" />
      <feComposite
         id="feComposite5382"
         result="comp"
         operator="in"
         in2="SourceAlpha"
         in="blend" />
    </filter>
    <filter
       id="InvertTransparencyBitmapFilter">
      <feComponentTransfer
         id="feComponentTransfer5391">
        <feFuncR
           id="feFuncR5385"
           offset="-0.055"
           exponent=".416666666"
           amplitude="1.055"
           type="gamma" />
        <feFuncG
           id="feFuncG5387"
           offset="-0.055"
           exponent=".416666666"
           amplitude="1.055"
           type="gamma" />
        <feFuncB
           id="feFuncB5389"
           offset="-0.055"
           exponent=".416666666"
           amplitude="1.055"
           type="gamma" />
      </feComponentTransfer>
      <feComponentTransfer
         id="feComponentTransfer5401">
        <feFuncR
           id="feFuncR5393"
           intercept="1"
           slope="-1"
           type="linear" />
        <feFuncG
           id="feFuncG5395"
           intercept="1"
           slope="-1"
           type="linear" />
        <feFuncB
           id="feFuncB5397"
           intercept="1"
           slope="-1"
           type="linear" />
        <feFuncA
           id="feFuncA5399"
           intercept="0"
           slope="1"
           type="linear" />
      </feComponentTransfer>
      <feComponentTransfer
         id="feComponentTransfer5409">
        <feFuncR
           id="feFuncR5403"
           offset="0"
           exponent="2.4"
           amplitude="1"
           type="gamma" />
        <feFuncG
           id="feFuncG5405"
           offset="0"
           exponent="2.4"
           amplitude="1"
           type="gamma" />
        <feFuncB
           id="feFuncB5407"
           offset="0"
           exponent="2.4"
           amplitude="1"
           type="gamma" />
      </feComponentTransfer>
    </filter>
    <clipPath
       id="clipPath6083"
       clipPathUnits="userSpaceOnUse">
      <rect
         transform="scale(1,-1)"
         y="-0.003"
         x="0.0049999999"
         height="18.000999"
         width="18.000999"
         id="rect6085"
         style="fill:none;stroke:#000000;stroke-width:0;stroke-miterlimit:2" />
    </clipPath>
  </defs>
  <g
     clip-path="url(#clipPath6083)"
     transform="translate(0,17.994999)"
     font-size="16px"
     font-family="'Times New Roman'"
     stroke="#000000"
     fill="none"
     id="Document">
    <g
       transform="translate(0,-18)"
       id="Spread">
      <g
         id="Layer 1">
        <path
           id="path5414"
           stroke="none"
           d="m 25.057,9.418 h 24 v -24 h -24 v 24" />
        <path
           id="path5416"
           fill-opacity="0"
           stroke-miterlimit="79.8403"
           marker-end="none"
           marker-start="none"
           stroke-linejoin="round"
           fill-rule="evenodd"
           stroke-width="0"
           fill="#800000"
           stroke-opacity="0.85098"
           stroke="none"
           d="m 33.471,-1.769 c 0,2.241 1.88,4.06 4.196,4.06 2.316,0 4.196,-1.819 4.196,-4.06 0,-2.241 -1.88,-4.06 -4.196,-4.06 -2.316,0 -4.196,1.819 -4.196,4.06 z" />
        <g
           stroke-miterlimit="79.8403"
           stroke-width="0.75"
           stroke-linejoin="miter"
           id="Group">
          <path
             id="path5418"
             marker-end="none"
             marker-start="none"
             stroke="none"
             fill="#282828"
             d="M 18.006,0.002 V 18.003 H 0.005 V 0.002 Z" />
          <g
             stroke="#b4b4b4"
             id="Group_1">
            <g
               id="Group_2">
              <path
                 id="path5420"
                 marker-end="none"
                 marker-start="none"
                 d="M 7.472,3.357 7.468,6.356 10.467,6.36 10.471,3.361 Z" />
              <path
                 id="path5422"
                 marker-end="none"
                 marker-start="none"
                 d="M 8.951,4.483 C 9.158,4.474 9.335,4.633 9.344,4.84 9.353,5.047 9.194,5.224 8.987,5.233 8.78,5.242 8.603,5.083 8.594,4.876 8.585,4.669 8.744,4.492 8.951,4.483 Z" />
            </g>
            <g
               id="Group_3">
              <path
                 id="path5425"
                 marker-end="none"
                 marker-start="none"
                 d="m 2.118,11.629 -0.004,2.999 2.999,0.004 0.004,-2.999 z" />
              <path
                 id="path5427"
                 marker-end="none"
                 marker-start="none"
                 d="m 3.597,12.755 c 0.207,-0.009 0.384,0.15 0.393,0.357 0.009,0.207 -0.15,0.384 -0.357,0.393 C 3.426,13.514 3.249,13.355 3.24,13.148 3.231,12.941 3.39,12.764 3.597,12.755 Z" />
            </g>
            <g
               id="Group_4">
              <path
                 id="path5430"
                 marker-end="none"
                 marker-start="none"
                 d="m 12.898,11.643 -0.004,2.999 2.999,0.004 0.004,-2.999 z" />
              <path
                 id="path5432"
                 marker-end="none"
                 marker-start="none"
                 d="m 14.377,12.769 c 0.207,-0.009 0.384,0.15 0.393,0.357 0.009,0.207 -0.15,0.384 -0.357,0.393 -0.207,0.009 -0.384,-0.15 -0.393,-0.357 -0.009,-0.207 0.15,-0.384 0.357,-0.393 z" />
            </g>
            <path
               id="path5435"
               marker-end="none"
               marker-start="none"
               d="M 5.147,12.943 5.149,11.591 6.675,8.937 8.162,6.353 9.807,6.354 11.3,8.93 l 1.557,2.69 -0.002,1.312 -3.861,0.005 z" />
          </g>
        </g>
      </g>
    </g>
  </g>
</svg>
