<?xml version="1.0" standalone="no"?>
<!DOCTYPE svg PUBLIC "-//W3C//DTD SVG 1.1//EN" "http://www.w3.org/Graphics/SVG/1.1/DTD/svg11.dtd">
<!--Generator: Xara Designer (www.xara.com), SVG filter version: 5.0.0.2-->
<svg stroke-width="0.501" stroke-linejoin="bevel" fill-rule="evenodd" xmlns:xlink="http://www.w3.org/1999/xlink" xmlns="http://www.w3.org/2000/svg" version="1.1" overflow="visible" width="18pt" height="18pt" viewBox="0 0 18 18">
 <defs>
  <marker id="DefaultArrow2" markerUnits="strokeWidth" viewBox="0 0 1 1" markerWidth="1" markerHeight="1" overflow="visible" orient="auto">
   <!-- REF_ARROW_STRAIGHT (-2) -->
   <g transform="scale(0.0092592592)">
    <!-- 1/108 -->
    <path d="M -9 54 L -9 -54 L 117 0 z"/>
   </g>
  </marker>
  <marker id="DefaultArrow3" markerUnits="strokeWidth" viewBox="0 0 1 1" markerWidth="1" markerHeight="1" overflow="visible" orient="auto">
   <!-- REF_ARROW_ANGLED -->
   <g transform="scale(0.0092592592)">
    <path d="M -27 54 L -9 0 L -27 -54 L 135 0 z"/>
   </g>
  </marker>
  <marker id="DefaultArrow4" markerUnits="strokeWidth" viewBox="0 0 1 1" markerWidth="1" markerHeight="1" overflow="visible" orient="auto">
   <!-- REF_ARROW_ROUNDED -->
   <g transform="scale(0.0092592592)">
    <path d="M -9,0 L -9,-45 C -9,-51.708 2.808,-56.580 9,-54 L 117,-9 C 120.916,-7.369 126.000,-4.242 126,0 C 126,4.242 120.916,7.369 117,9 L 9,54 C 2.808,56.580 -9,51.708 -9,45 z"/>
   </g>
  </marker>
  <marker id="DefaultArrow5" markerUnits="strokeWidth" viewBox="0 0 1 1" markerWidth="1" markerHeight="1" overflow="visible" orient="auto">
   <!-- REF_ARROW_SPOT -->
   <g transform="scale(0.0092592592)">
    <path d="M -54, 0 C -54,29.807 -29.807,54 0,54 C 29.807,54 54,29.807 54,0 C 54,-29.807 29.807,-54 0,-54 C -29.807,-54 -54,-29.807 -54,0 z"/>
   </g>
  </marker>
  <marker id="DefaultArrow6" markerUnits="strokeWidth" viewBox="0 0 1 1" markerWidth="1" markerHeight="1" overflow="visible" orient="auto">
   <!-- REF_ARROW_DIAMOND -->
   <g transform="scale(0.0092592592)">
    <path d="M -63,0 L 0,63 L 63,0 L 0,-63 z"/>
   </g>
  </marker>
  <marker id="DefaultArrow7" markerUnits="strokeWidth" viewBox="0 0 1 1" markerWidth="1" markerHeight="1" overflow="visible" orient="auto">
   <!-- REF_ARROW_FEATHER -->
   <g transform="scale(0.0092592592)">
    <path d="M 18,-54 L 108,-54 L 63,0 L 108,54 L 18, 54 L -36,0 z"/>
   </g>
  </marker>
  <marker id="DefaultArrow8" markerUnits="strokeWidth" viewBox="0 0 1 1" markerWidth="1" markerHeight="1" overflow="visible" orient="auto">
   <!-- REF_ARROW_FEATHER2 -->
   <g transform="scale(0.0092592592)">
    <path d="M -36,0 L 18,-54 L 54,-54 L 18,-18 L 27,-18 L 63,-54 L 99,-54 L 63,-18 L 72,-18 L 108,-54 L 144,-54 L 90,0 L 144,54 L 108,54 L 72,18 L 63,18 L 99,54 L 63,54 L 27,18 L 18,18 L 54,54 L 18,54 z"/>
   </g>
  </marker>
  <marker id="DefaultArrow9" markerUnits="strokeWidth" viewBox="0 0 1 1" markerWidth="1" markerHeight="1" overflow="visible" orient="auto">
   <!-- REF_ARROW_HOLLOWDIAMOND -->
   <g transform="scale(0.0092592592)">
    <path d="M 0,45 L -45,0 L 0, -45 L 45, 0 z M 0, 63 L-63, 0 L 0, -63 L 63, 0 z"/>
   </g>
  </marker>
  <filter id="StainedFilter">
   <feBlend mode="multiply" in2="BackgroundImage" in="SourceGraphic" result="blend"/>
   <feComposite in="blend" in2="SourceAlpha" operator="in" result="comp"/>
  </filter>
  <filter id="BleachFilter">
   <feBlend mode="screen" in2="BackgroundImage" in="SourceGraphic" result="blend"/>
   <feComposite in="blend" in2="SourceAlpha" operator="in" result="comp"/>
  </filter>
  <filter id="InvertTransparencyBitmapFilter">
   <feComponentTransfer>
    <feFuncR type="gamma" amplitude="1.055" exponent=".416666666" offset="-0.055"/>
    <feFuncG type="gamma" amplitude="1.055" exponent=".416666666" offset="-0.055"/>
    <feFuncB type="gamma" amplitude="1.055" exponent=".416666666" offset="-0.055"/>
   </feComponentTransfer>
   <feComponentTransfer>
    <feFuncR type="linear" slope="-1" intercept="1"/>
    <feFuncG type="linear" slope="-1" intercept="1"/>
    <feFuncB type="linear" slope="-1" intercept="1"/>
    <feFuncA type="linear" slope="1" intercept="0"/>
   </feComponentTransfer>
   <feComponentTransfer>
    <feFuncR type="gamma" amplitude="1" exponent="2.4" offset="0"/>
    <feFuncG type="gamma" amplitude="1" exponent="2.4" offset="0"/>
    <feFuncB type="gamma" amplitude="1" exponent="2.4" offset="0"/>
   </feComponentTransfer>
  </filter>
 </defs>
 <g id="Document" fill="none" stroke="black" font-family="Times New Roman" font-size="16" transform="scale(1 -1)">
  <g id="Spread" transform="translate(0 -18)">
   <g id="Layer 1">
    <path d="M 25.057,9.418 L 49.057,9.418 L 49.057,-14.582 L 25.057,-14.582 L 25.057,9.418" stroke="none"/>
    <g id="Group">
     <path d="M 0,0 L 0,18.001 L 18.001,18.001 L 18.001,0 L 0,0 Z" fill="#282828" stroke-width="0.75" stroke="none" stroke-linejoin="miter" marker-start="none" marker-end="none" stroke-miterlimit="79.8403193612775"/>
     <g id="Group_1">
      <g id="Group_2" fill="#b4b4b4">
       <path d="M 1.145,6.487 L 16.856,6.487" fill="none" stroke-width="0.785" stroke-linecap="round" stroke-linejoin="round" stroke="#b4b4b4" stroke-miterlimit="79.8403193612775"/>
       <path d="M 8.978,4.611 C 10.013,4.599 10.863,5.429 10.875,6.464 C 10.887,7.499 10.057,8.349 9.022,8.361 C 7.987,8.373 7.137,7.543 7.125,6.508 C 7.113,5.473 7.943,4.623 8.978,4.611 Z" stroke-linejoin="miter" stroke-width="0.238" stroke="none" marker-start="none" marker-end="none" stroke-miterlimit="79.8403193612775"/>
      </g>
      <path d="M 3.38,6.359 C 3.481,3.256 6.083,0.82 9.186,0.921 C 12.21,1.02 14.602,3.495 14.626,6.494 L 3.377,6.494 C 3.377,6.45 3.378,6.405 3.38,6.359 Z" stroke-linejoin="miter" stroke-width="0.75" stroke="#b4b4b4" marker-start="none" marker-end="none" stroke-miterlimit="79.8403193612775"/>
     </g>
     <g id="Group_3" fill-rule="nonzero" stroke-linejoin="round" stroke-linecap="round" stroke="none" stroke-width="0.375" fill="#b4b4b4" stroke-miterlimit="79.8403193612775">
      <g id="Group_4">
       <path d="M 8.872,10.719 C 8.872,11.116 8.786,11.475 8.613,11.797 C 8.44,12.12 8.21,12.37 7.923,12.547 C 7.724,12.67 7.502,12.759 7.257,12.814 C 7.012,12.869 6.689,12.896 6.288,12.896 L 5.187,12.896 L 5.187,8.534 L 6.277,8.534 C 6.702,8.534 7.041,8.565 7.292,8.626 C 7.543,8.688 7.755,8.772 7.929,8.88 C 8.226,9.065 8.457,9.312 8.623,9.621 C 8.789,9.929 8.872,10.296 8.872,10.719 Z M 8.266,10.711 C 8.266,10.369 8.206,10.081 8.087,9.846 C 7.968,9.612 7.79,9.427 7.554,9.293 C 7.382,9.195 7.2,9.127 7.006,9.089 C 6.813,9.051 6.581,9.032 6.312,9.032 L 5.767,9.032 L 5.767,12.398 L 6.312,12.398 C 6.591,12.398 6.835,12.378 7.043,12.336 C 7.251,12.295 7.442,12.219 7.615,12.108 C 7.832,11.969 7.995,11.787 8.103,11.56 C 8.212,11.334 8.266,11.05 8.266,10.711 Z" marker-start="none" marker-end="none"/>
       <path d="M 13.419,12.896 L 12.666,12.896 L 11.205,11.162 L 10.39,11.162 L 10.39,12.896 L 9.81,12.896 L 9.81,8.534 L 11.031,8.534 C 11.295,8.534 11.515,8.551 11.691,8.585 C 11.866,8.619 12.025,8.68 12.165,8.768 C 12.323,8.868 12.447,8.993 12.536,9.145 C 12.625,9.296 12.669,9.488 12.669,9.72 C 12.669,10.035 12.59,10.298 12.432,10.51 C 12.274,10.722 12.056,10.881 11.779,10.989 L 13.419,12.896 Z M 12.063,9.761 C 12.063,9.636 12.041,9.526 11.997,9.429 C 11.953,9.332 11.88,9.251 11.779,9.184 C 11.695,9.128 11.595,9.088 11.48,9.066 C 11.364,9.043 11.229,9.032 11.073,9.032 L 10.39,9.032 L 10.39,10.678 L 10.976,10.678 C 11.159,10.678 11.32,10.662 11.456,10.63 C 11.593,10.598 11.709,10.538 11.805,10.45 C 11.893,10.368 11.958,10.274 12,10.167 C 12.042,10.061 12.063,9.926 12.063,9.761 Z" marker-start="none" marker-end="none"/>
      </g>
      <g id="Group_5">
       <path d="M 4.789,15.453 C 4.789,16.236 4.666,16.81 4.421,17.177 C 4.176,17.543 3.796,17.726 3.28,17.726 C 2.757,17.726 2.374,17.54 2.133,17.169 C 1.892,16.798 1.771,16.228 1.771,15.458 C 1.771,14.683 1.893,14.11 2.138,13.74 C 2.382,13.37 2.762,13.185 3.28,13.185 C 3.804,13.185 4.186,13.373 4.427,13.749 C 4.668,14.125 4.789,14.693 4.789,15.453 Z M 4.018,16.783 C 4.087,16.624 4.133,16.438 4.157,16.224 C 4.182,16.011 4.194,15.753 4.194,15.453 C 4.194,15.156 4.182,14.898 4.157,14.679 C 4.133,14.46 4.086,14.275 4.015,14.123 C 3.947,13.972 3.854,13.859 3.736,13.783 C 3.617,13.707 3.466,13.668 3.28,13.668 C 3.096,13.668 2.945,13.707 2.824,13.783 C 2.704,13.859 2.609,13.974 2.539,14.128 C 2.473,14.273 2.427,14.461 2.403,14.694 C 2.378,14.926 2.366,15.181 2.366,15.458 C 2.366,15.763 2.377,16.018 2.398,16.223 C 2.42,16.428 2.466,16.612 2.536,16.774 C 2.6,16.926 2.692,17.042 2.81,17.122 C 2.928,17.202 3.085,17.242 3.28,17.242 C 3.464,17.242 3.616,17.204 3.737,17.128 C 3.858,17.052 3.952,16.937 4.018,16.783 Z" marker-start="none" marker-end="none"/>
       <path d="M 8.603,15.192 C 8.603,15.573 8.559,15.918 8.472,16.229 C 8.385,16.539 8.254,16.804 8.078,17.023 C 7.901,17.245 7.678,17.417 7.41,17.538 C 7.143,17.659 6.828,17.72 6.467,17.72 C 6.366,17.72 6.27,17.715 6.18,17.704 C 6.09,17.693 6.01,17.676 5.94,17.653 L 5.94,17.093 L 5.969,17.093 C 6.026,17.122 6.106,17.15 6.209,17.177 C 6.313,17.203 6.428,17.216 6.555,17.216 C 6.987,17.216 7.325,17.087 7.57,16.828 C 7.815,16.569 7.957,16.212 7.996,15.757 C 7.815,15.867 7.644,15.945 7.484,15.992 C 7.324,16.038 7.149,16.062 6.959,16.062 C 6.78,16.062 6.617,16.044 6.472,16.009 C 6.326,15.974 6.18,15.906 6.034,15.804 C 5.862,15.685 5.732,15.534 5.645,15.35 C 5.558,15.166 5.515,14.947 5.515,14.691 C 5.515,14.246 5.661,13.883 5.954,13.604 C 6.247,13.325 6.605,13.185 7.027,13.185 C 7.238,13.185 7.433,13.218 7.613,13.283 C 7.792,13.349 7.949,13.447 8.084,13.578 C 8.25,13.74 8.378,13.948 8.468,14.203 C 8.558,14.458 8.603,14.788 8.603,15.192 Z M 8.011,15.066 C 8.011,14.763 7.98,14.52 7.917,14.336 C 7.855,14.153 7.769,14.01 7.659,13.909 C 7.568,13.821 7.469,13.758 7.364,13.72 C 7.258,13.682 7.144,13.663 7.021,13.663 C 6.74,13.663 6.517,13.75 6.354,13.926 C 6.191,14.102 6.11,14.349 6.11,14.667 C 6.11,14.853 6.136,15.004 6.189,15.121 C 6.242,15.239 6.33,15.341 6.455,15.429 C 6.543,15.49 6.64,15.53 6.745,15.551 C 6.851,15.571 6.968,15.581 7.097,15.581 C 7.249,15.581 7.404,15.561 7.56,15.52 C 7.716,15.479 7.863,15.419 7.999,15.341 C 8.001,15.3 8.004,15.26 8.007,15.22 C 8.009,15.18 8.011,15.128 8.011,15.066 Z" marker-start="none" marker-end="none"/>
       <path d="M 12.417,15.453 C 12.417,16.236 12.294,16.81 12.049,17.177 C 11.804,17.543 11.424,17.726 10.908,17.726 C 10.385,17.726 10.002,17.54 9.761,17.169 C 9.52,16.798 9.399,16.228 9.399,15.458 C 9.399,14.683 9.521,14.11 9.766,13.74 C 10.01,13.37 10.39,13.185 10.908,13.185 C 11.432,13.185 11.814,13.373 12.055,13.749 C 12.296,14.125 12.417,14.693 12.417,15.453 Z M 11.646,16.783 C 11.715,16.624 11.761,16.438 11.785,16.224 C 11.81,16.011 11.822,15.753 11.822,15.453 C 11.822,15.156 11.81,14.898 11.785,14.679 C 11.761,14.46 11.714,14.275 11.643,14.123 C 11.575,13.972 11.482,13.859 11.364,13.783 C 11.245,13.707 11.094,13.668 10.908,13.668 C 10.724,13.668 10.573,13.707 10.452,13.783 C 10.332,13.859 10.237,13.974 10.167,14.128 C 10.101,14.273 10.055,14.461 10.031,14.694 C 10.006,14.926 9.994,15.181 9.994,15.458 C 9.994,15.763 10.005,16.018 10.026,16.223 C 10.048,16.428 10.094,16.612 10.164,16.774 C 10.228,16.926 10.32,17.042 10.438,17.122 C 10.556,17.202 10.713,17.242 10.908,17.242 C 11.092,17.242 11.244,17.204 11.365,17.128 C 11.486,17.052 11.58,16.937 11.646,16.783 Z" marker-start="none" marker-end="none"/>
       <path d="M 16.231,15.453 C 16.231,16.236 16.108,16.81 15.863,17.177 C 15.618,17.543 15.238,17.726 14.722,17.726 C 14.199,17.726 13.816,17.54 13.575,17.169 C 13.334,16.798 13.213,16.228 13.213,15.458 C 13.213,14.683 13.335,14.11 13.58,13.74 C 13.824,13.37 14.204,13.185 14.722,13.185 C 15.246,13.185 15.628,13.373 15.869,13.749 C 16.11,14.125 16.231,14.693 16.231,15.453 Z M 15.46,16.783 C 15.529,16.624 15.575,16.438 15.599,16.224 C 15.624,16.011 15.636,15.753 15.636,15.453 C 15.636,15.156 15.624,14.898 15.599,14.679 C 15.575,14.46 15.528,14.275 15.457,14.123 C 15.389,13.972 15.296,13.859 15.178,13.783 C 15.059,13.707 14.908,13.668 14.722,13.668 C 14.538,13.668 14.387,13.707 14.266,13.783 C 14.146,13.859 14.051,13.974 13.981,14.128 C 13.915,14.273 13.869,14.461 13.845,14.694 C 13.82,14.926 13.808,15.181 13.808,15.458 C 13.808,15.763 13.819,16.018 13.84,16.223 C 13.862,16.428 13.908,16.612 13.978,16.774 C 14.042,16.926 14.134,17.042 14.252,17.122 C 14.37,17.202 14.527,17.242 14.722,17.242 C 14.906,17.242 15.058,17.204 15.179,17.128 C 15.3,17.052 15.394,16.937 15.46,16.783 Z" marker-start="none" marker-end="none"/>
      </g>
     </g>
    </g>
   </g>
  </g>
 </g>
</svg>
