<?xml version="1.0" encoding="UTF-8" standalone="no"?>
<!--Generator: Xara Designer (www.xara.com), SVG filter version: 5.0.0.2-->

<svg
   xmlns:dc="http://purl.org/dc/elements/1.1/"
   xmlns:cc="http://creativecommons.org/ns#"
   xmlns:rdf="http://www.w3.org/1999/02/22-rdf-syntax-ns#"
   xmlns:svg="http://www.w3.org/2000/svg"
   xmlns="http://www.w3.org/2000/svg"
   xmlns:sodipodi="http://sodipodi.sourceforge.net/DTD/sodipodi-0.dtd"
   xmlns:inkscape="http://www.inkscape.org/namespaces/inkscape"
   stroke-width="0.501"
   stroke-linejoin="bevel"
   fill-rule="evenodd"
   version="1.1"
   overflow="visible"
   width="18pt"
   height="18pt"
   viewBox="0 0 18 18"
   id="svg5081"
   sodipodi:docname="DR_MUI1.svg"
   inkscape:version="0.92.5 (2060ec1f9f, 2020-04-08)">
  <metadata
     id="metadata5085">
    <rdf:RDF>
      <cc:Work
         rdf:about="">
        <dc:format>image/svg+xml</dc:format>
        <dc:type
           rdf:resource="http://purl.org/dc/dcmitype/StillImage" />
        <dc:title></dc:title>
      </cc:Work>
    </rdf:RDF>
  </metadata>
  <sodipodi:namedview
     pagecolor="#ffffff"
     bordercolor="#666666"
     borderopacity="1"
     objecttolerance="10"
     gridtolerance="10"
     guidetolerance="10"
     inkscape:pageopacity="0"
     inkscape:pageshadow="2"
     inkscape:window-width="1920"
     inkscape:window-height="1056"
     id="namedview5083"
     showgrid="false"
     inkscape:zoom="19.979744"
     inkscape:cx="32.704667"
     inkscape:cy="2.2793333"
     inkscape:window-x="0"
     inkscape:window-y="0"
     inkscape:window-maximized="1"
     inkscape:current-layer="svg5081" />
  <defs
     id="defs5048">
    <marker
       id="DefaultArrow2"
       markerUnits="strokeWidth"
       viewBox="0 0 1 1"
       markerWidth="1"
       markerHeight="1"
       overflow="visible"
       orient="auto">
      <!-- REF_ARROW_STRAIGHT (-2) -->
      <g
         transform="scale(0.0092592592)"
         id="g4973">
        <!-- 1/108 -->
        <path
           d="M -9 54 L -9 -54 L 117 0 z"
           id="path4971" />
      </g>
    </marker>
    <marker
       id="DefaultArrow3"
       markerUnits="strokeWidth"
       viewBox="0 0 1 1"
       markerWidth="1"
       markerHeight="1"
       overflow="visible"
       orient="auto">
      <!-- REF_ARROW_ANGLED -->
      <g
         transform="scale(0.0092592592)"
         id="g4978">
        <path
           d="M -27 54 L -9 0 L -27 -54 L 135 0 z"
           id="path4976" />
      </g>
    </marker>
    <marker
       id="DefaultArrow4"
       markerUnits="strokeWidth"
       viewBox="0 0 1 1"
       markerWidth="1"
       markerHeight="1"
       overflow="visible"
       orient="auto">
      <!-- REF_ARROW_ROUNDED -->
      <g
         transform="scale(0.0092592592)"
         id="g4983">
        <path
           d="M -9,0 L -9,-45 C -9,-51.708 2.808,-56.580 9,-54 L 117,-9 C 120.916,-7.369 126.000,-4.242 126,0 C 126,4.242 120.916,7.369 117,9 L 9,54 C 2.808,56.580 -9,51.708 -9,45 z"
           id="path4981" />
      </g>
    </marker>
    <marker
       id="DefaultArrow5"
       markerUnits="strokeWidth"
       viewBox="0 0 1 1"
       markerWidth="1"
       markerHeight="1"
       overflow="visible"
       orient="auto">
      <!-- REF_ARROW_SPOT -->
      <g
         transform="scale(0.0092592592)"
         id="g4988">
        <path
           d="M -54, 0 C -54,29.807 -29.807,54 0,54 C 29.807,54 54,29.807 54,0 C 54,-29.807 29.807,-54 0,-54 C -29.807,-54 -54,-29.807 -54,0 z"
           id="path4986" />
      </g>
    </marker>
    <marker
       id="DefaultArrow6"
       markerUnits="strokeWidth"
       viewBox="0 0 1 1"
       markerWidth="1"
       markerHeight="1"
       overflow="visible"
       orient="auto">
      <!-- REF_ARROW_DIAMOND -->
      <g
         transform="scale(0.0092592592)"
         id="g4993">
        <path
           d="M -63,0 L 0,63 L 63,0 L 0,-63 z"
           id="path4991" />
      </g>
    </marker>
    <marker
       id="DefaultArrow7"
       markerUnits="strokeWidth"
       viewBox="0 0 1 1"
       markerWidth="1"
       markerHeight="1"
       overflow="visible"
       orient="auto">
      <!-- REF_ARROW_FEATHER -->
      <g
         transform="scale(0.0092592592)"
         id="g4998">
        <path
           d="M 18,-54 L 108,-54 L 63,0 L 108,54 L 18, 54 L -36,0 z"
           id="path4996" />
      </g>
    </marker>
    <marker
       id="DefaultArrow8"
       markerUnits="strokeWidth"
       viewBox="0 0 1 1"
       markerWidth="1"
       markerHeight="1"
       overflow="visible"
       orient="auto">
      <!-- REF_ARROW_FEATHER2 -->
      <g
         transform="scale(0.0092592592)"
         id="g5003">
        <path
           d="M -36,0 L 18,-54 L 54,-54 L 18,-18 L 27,-18 L 63,-54 L 99,-54 L 63,-18 L 72,-18 L 108,-54 L 144,-54 L 90,0 L 144,54 L 108,54 L 72,18 L 63,18 L 99,54 L 63,54 L 27,18 L 18,18 L 54,54 L 18,54 z"
           id="path5001" />
      </g>
    </marker>
    <marker
       id="DefaultArrow9"
       markerUnits="strokeWidth"
       viewBox="0 0 1 1"
       markerWidth="1"
       markerHeight="1"
       overflow="visible"
       orient="auto">
      <!-- REF_ARROW_HOLLOWDIAMOND -->
      <g
         transform="scale(0.0092592592)"
         id="g5008">
        <path
           d="M 0,45 L -45,0 L 0, -45 L 45, 0 z M 0, 63 L-63, 0 L 0, -63 L 63, 0 z"
           id="path5006" />
      </g>
    </marker>
    <filter
       id="StainedFilter">
      <feBlend
         mode="multiply"
         in2="BackgroundImage"
         in="SourceGraphic"
         result="blend"
         id="feBlend5011" />
      <feComposite
         in="blend"
         in2="SourceAlpha"
         operator="in"
         result="comp"
         id="feComposite5013" />
    </filter>
    <filter
       id="BleachFilter">
      <feBlend
         mode="screen"
         in2="BackgroundImage"
         in="SourceGraphic"
         result="blend"
         id="feBlend5016" />
      <feComposite
         in="blend"
         in2="SourceAlpha"
         operator="in"
         result="comp"
         id="feComposite5018" />
    </filter>
    <filter
       id="InvertTransparencyBitmapFilter">
      <feComponentTransfer
         id="feComponentTransfer5027">
        <feFuncR
           type="gamma"
           amplitude="1.055"
           exponent=".416666666"
           offset="-0.055"
           id="feFuncR5021" />
        <feFuncG
           type="gamma"
           amplitude="1.055"
           exponent=".416666666"
           offset="-0.055"
           id="feFuncG5023" />
        <feFuncB
           type="gamma"
           amplitude="1.055"
           exponent=".416666666"
           offset="-0.055"
           id="feFuncB5025" />
      </feComponentTransfer>
      <feComponentTransfer
         id="feComponentTransfer5037">
        <feFuncR
           type="linear"
           slope="-1"
           intercept="1"
           id="feFuncR5029" />
        <feFuncG
           type="linear"
           slope="-1"
           intercept="1"
           id="feFuncG5031" />
        <feFuncB
           type="linear"
           slope="-1"
           intercept="1"
           id="feFuncB5033" />
        <feFuncA
           type="linear"
           slope="1"
           intercept="0"
           id="feFuncA5035" />
      </feComponentTransfer>
      <feComponentTransfer
         id="feComponentTransfer5045">
        <feFuncR
           type="gamma"
           amplitude="1"
           exponent="2.4"
           offset="0"
           id="feFuncR5039" />
        <feFuncG
           type="gamma"
           amplitude="1"
           exponent="2.4"
           offset="0"
           id="feFuncG5041" />
        <feFuncB
           type="gamma"
           amplitude="1"
           exponent="2.4"
           offset="0"
           id="feFuncB5043" />
      </feComponentTransfer>
    </filter>
    <clipPath
       clipPathUnits="userSpaceOnUse"
       id="clipPath5089">
      <rect
         style="fill:none;stroke:#000000;stroke-width:0;stroke-miterlimit:2"
         id="rect5091"
         width="18.000999"
         height="18.000999"
         x="0"
         y="-0.00099999993"
         transform="scale(1,-1)" />
    </clipPath>
  </defs>
  <g
     id="Document"
     font-size="16"
     transform="translate(0,17.998999)"
     style="font-size:16px;font-family:'Times New Roman';fill:none;stroke:#000000"
     clip-path="url(#clipPath5089)">
    <g
       id="Spread"
       transform="translate(0,-18)">
      <g
         id="Layer 1">
        <path
           d="m 25.057,9.418 h 24 v -24 h -24 v 24"
           id="path5050"
           inkscape:connector-curvature="0"
           style="stroke:none" />
        <g
           id="Group">
          <path
             d="M 0,0 V 18.001 H 18.001 V 0 Z"
             stroke-miterlimit="79.8403193612775"
             id="path5052"
             inkscape:connector-curvature="0"
             style="fill:#282828;stroke:none;stroke-width:0.75;stroke-linejoin:miter;stroke-miterlimit:79.84031677;marker-start:none;marker-end:none" />
          <g
             id="Group_1">
            <g
               id="Group_2"
               style="fill:#b4b4b4">
              <path
                 d="M 1.145,6.487 H 16.856"
                 stroke-miterlimit="79.8403193612775"
                 id="path5054"
                 inkscape:connector-curvature="0"
                 style="fill:none;stroke:#b4b4b4;stroke-width:0.78500003;stroke-linecap:round;stroke-linejoin:round;stroke-miterlimit:79.84031677" />
              <path
                 d="M 8.978,4.611 C 10.013,4.599 10.863,5.429 10.875,6.464 10.887,7.499 10.057,8.349 9.022,8.361 7.987,8.373 7.137,7.543 7.125,6.508 7.113,5.473 7.943,4.623 8.978,4.611 Z"
                 stroke-miterlimit="79.8403193612775"
                 id="path5056"
                 inkscape:connector-curvature="0"
                 style="stroke:none;stroke-width:0.23800001;stroke-linejoin:miter;stroke-miterlimit:79.84031677;marker-start:none;marker-end:none" />
            </g>
            <path
               d="M 3.38,6.359 C 3.481,3.256 6.083,0.82 9.186,0.921 12.21,1.02 14.602,3.495 14.626,6.494 H 3.377 C 3.377,6.45 3.378,6.405 3.38,6.359 Z"
               stroke-miterlimit="79.8403193612775"
               id="path5059"
               inkscape:connector-curvature="0"
               style="stroke:#b4b4b4;stroke-width:0.75;stroke-linejoin:miter;stroke-miterlimit:79.84031677;marker-start:none;marker-end:none" />
          </g>
          <g
             id="Group_3"
             stroke-miterlimit="79.8403193612775"
             style="fill:#b4b4b4;fill-rule:nonzero;stroke:none;stroke-width:0.375;stroke-linecap:round;stroke-linejoin:round;stroke-miterlimit:79.84031677">
            <g
               id="Group_4">
              <path
                 d="m 8.872,10.719 c 0,0.397 -0.086,0.756 -0.259,1.078 C 8.44,12.12 8.21,12.37 7.923,12.547 7.724,12.67 7.502,12.759 7.257,12.814 7.012,12.869 6.689,12.896 6.288,12.896 H 5.187 V 8.534 h 1.09 c 0.425,0 0.764,0.031 1.015,0.092 0.251,0.062 0.463,0.146 0.637,0.254 0.297,0.185 0.528,0.432 0.694,0.741 0.166,0.308 0.249,0.675 0.249,1.098 z M 8.266,10.711 c 0,-0.342 -0.06,-0.63 -0.179,-0.865 C 7.968,9.612 7.79,9.427 7.554,9.293 7.382,9.195 7.2,9.127 7.006,9.089 6.813,9.051 6.581,9.032 6.312,9.032 H 5.767 v 3.366 h 0.545 c 0.279,0 0.523,-0.02 0.731,-0.062 0.208,-0.041 0.399,-0.117 0.572,-0.228 0.217,-0.139 0.38,-0.321 0.488,-0.548 0.109,-0.226 0.163,-0.51 0.163,-0.849 z"
                 id="path5062"
                 inkscape:connector-curvature="0"
                 style="marker-start:none;marker-end:none" />
              <path
                 d="M 13.419,12.896 H 12.666 L 11.205,11.162 H 10.39 v 1.734 H 9.81 V 8.534 h 1.221 c 0.264,0 0.484,0.017 0.66,0.051 0.175,0.034 0.334,0.095 0.474,0.183 0.158,0.1 0.282,0.225 0.371,0.377 0.089,0.151 0.133,0.343 0.133,0.575 0,0.315 -0.079,0.578 -0.237,0.79 -0.158,0.212 -0.376,0.371 -0.653,0.479 z M 12.063,9.761 C 12.063,9.636 12.041,9.526 11.997,9.429 11.953,9.332 11.88,9.251 11.779,9.184 11.695,9.128 11.595,9.088 11.48,9.066 11.364,9.043 11.229,9.032 11.073,9.032 H 10.39 v 1.646 h 0.586 c 0.183,0 0.344,-0.016 0.48,-0.048 0.137,-0.032 0.253,-0.092 0.349,-0.18 0.088,-0.082 0.153,-0.176 0.195,-0.283 0.042,-0.106 0.063,-0.241 0.063,-0.406 z"
                 id="path5064"
                 inkscape:connector-curvature="0"
                 style="marker-start:none;marker-end:none" />
            </g>
            <g
               id="Group_5">
              <path
                 d="m 4.789,15.453 c 0,0.783 -0.123,1.357 -0.368,1.724 -0.245,0.366 -0.625,0.549 -1.141,0.549 -0.523,0 -0.906,-0.186 -1.147,-0.557 -0.241,-0.371 -0.362,-0.941 -0.362,-1.711 0,-0.775 0.122,-1.348 0.367,-1.718 0.244,-0.37 0.624,-0.555 1.142,-0.555 0.524,0 0.906,0.188 1.147,0.564 0.241,0.376 0.362,0.944 0.362,1.704 z m -0.771,1.33 C 4.087,16.624 4.133,16.438 4.157,16.224 4.182,16.011 4.194,15.753 4.194,15.453 4.194,15.156 4.182,14.898 4.157,14.679 4.133,14.46 4.086,14.275 4.015,14.123 3.947,13.972 3.854,13.859 3.736,13.783 3.617,13.707 3.466,13.668 3.28,13.668 c -0.184,0 -0.335,0.039 -0.456,0.115 -0.12,0.076 -0.215,0.191 -0.285,0.345 -0.066,0.145 -0.112,0.333 -0.136,0.566 -0.025,0.232 -0.037,0.487 -0.037,0.764 0,0.305 0.011,0.56 0.032,0.765 0.022,0.205 0.068,0.389 0.138,0.551 0.064,0.152 0.156,0.268 0.274,0.348 0.118,0.08 0.275,0.12 0.47,0.12 0.184,0 0.336,-0.038 0.457,-0.114 0.121,-0.076 0.215,-0.191 0.281,-0.345 z"
                 id="path5067"
                 inkscape:connector-curvature="0"
                 style="marker-start:none;marker-end:none" />
              <path
                 d="m 8.603,15.192 c 0,0.381 -0.044,0.726 -0.131,1.037 -0.087,0.31 -0.218,0.575 -0.394,0.794 -0.177,0.222 -0.4,0.394 -0.668,0.515 C 7.143,17.659 6.828,17.72 6.467,17.72 6.366,17.72 6.27,17.715 6.18,17.704 6.09,17.693 6.01,17.676 5.94,17.653 v -0.56 h 0.029 c 0.057,0.029 0.137,0.057 0.24,0.084 0.104,0.026 0.219,0.039 0.346,0.039 0.432,0 0.77,-0.129 1.015,-0.388 0.245,-0.259 0.387,-0.616 0.426,-1.071 -0.181,0.11 -0.352,0.188 -0.512,0.235 -0.16,0.046 -0.335,0.07 -0.525,0.07 -0.179,0 -0.342,-0.018 -0.487,-0.053 C 6.326,15.974 6.18,15.906 6.034,15.804 5.862,15.685 5.732,15.534 5.645,15.35 5.558,15.166 5.515,14.947 5.515,14.691 c 0,-0.445 0.146,-0.808 0.439,-1.087 0.293,-0.279 0.651,-0.419 1.073,-0.419 0.211,0 0.406,0.033 0.586,0.098 0.179,0.066 0.336,0.164 0.471,0.295 0.166,0.162 0.294,0.37 0.384,0.625 0.09,0.255 0.135,0.585 0.135,0.989 z M 8.011,15.066 C 8.011,14.763 7.98,14.52 7.917,14.336 7.855,14.153 7.769,14.01 7.659,13.909 7.568,13.821 7.469,13.758 7.364,13.72 7.258,13.682 7.144,13.663 7.021,13.663 c -0.281,0 -0.504,0.087 -0.667,0.263 -0.163,0.176 -0.244,0.423 -0.244,0.741 0,0.186 0.026,0.337 0.079,0.454 0.053,0.118 0.141,0.22 0.266,0.308 0.088,0.061 0.185,0.101 0.29,0.122 0.106,0.02 0.223,0.03 0.352,0.03 0.152,0 0.307,-0.02 0.463,-0.061 C 7.716,15.479 7.863,15.419 7.999,15.341 8.001,15.3 8.004,15.26 8.007,15.22 8.009,15.18 8.011,15.128 8.011,15.066 Z"
                 id="path5069"
                 inkscape:connector-curvature="0"
                 style="marker-start:none;marker-end:none" />
              <path
                 d="m 12.417,15.453 c 0,0.783 -0.123,1.357 -0.368,1.724 -0.245,0.366 -0.625,0.549 -1.141,0.549 -0.523,0 -0.906,-0.186 -1.147,-0.557 -0.241,-0.371 -0.362,-0.941 -0.362,-1.711 0,-0.775 0.122,-1.348 0.367,-1.718 0.244,-0.37 0.624,-0.555 1.142,-0.555 0.524,0 0.906,0.188 1.147,0.564 0.241,0.376 0.362,0.944 0.362,1.704 z m -0.771,1.33 c 0.069,-0.159 0.115,-0.345 0.139,-0.559 0.025,-0.213 0.037,-0.471 0.037,-0.771 0,-0.297 -0.012,-0.555 -0.037,-0.774 -0.024,-0.219 -0.071,-0.404 -0.142,-0.556 -0.068,-0.151 -0.161,-0.264 -0.279,-0.34 -0.119,-0.076 -0.27,-0.115 -0.456,-0.115 -0.184,0 -0.335,0.039 -0.456,0.115 -0.12,0.076 -0.215,0.191 -0.285,0.345 -0.066,0.145 -0.112,0.333 -0.136,0.566 -0.025,0.232 -0.037,0.487 -0.037,0.764 0,0.305 0.011,0.56 0.032,0.765 0.022,0.205 0.068,0.389 0.138,0.551 0.064,0.152 0.156,0.268 0.274,0.348 0.118,0.08 0.275,0.12 0.47,0.12 0.184,0 0.336,-0.038 0.457,-0.114 0.121,-0.076 0.215,-0.191 0.281,-0.345 z"
                 id="path5071"
                 inkscape:connector-curvature="0"
                 style="marker-start:none;marker-end:none" />
              <path
                 d="m 16.231,15.453 c 0,0.783 -0.123,1.357 -0.368,1.724 -0.245,0.366 -0.625,0.549 -1.141,0.549 -0.523,0 -0.906,-0.186 -1.147,-0.557 -0.241,-0.371 -0.362,-0.941 -0.362,-1.711 0,-0.775 0.122,-1.348 0.367,-1.718 0.244,-0.37 0.624,-0.555 1.142,-0.555 0.524,0 0.906,0.188 1.147,0.564 0.241,0.376 0.362,0.944 0.362,1.704 z m -0.771,1.33 c 0.069,-0.159 0.115,-0.345 0.139,-0.559 0.025,-0.213 0.037,-0.471 0.037,-0.771 0,-0.297 -0.012,-0.555 -0.037,-0.774 -0.024,-0.219 -0.071,-0.404 -0.142,-0.556 -0.068,-0.151 -0.161,-0.264 -0.279,-0.34 -0.119,-0.076 -0.27,-0.115 -0.456,-0.115 -0.184,0 -0.335,0.039 -0.456,0.115 -0.12,0.076 -0.215,0.191 -0.285,0.345 -0.066,0.145 -0.112,0.333 -0.136,0.566 -0.025,0.232 -0.037,0.487 -0.037,0.764 0,0.305 0.011,0.56 0.032,0.765 0.022,0.205 0.068,0.389 0.138,0.551 0.064,0.152 0.156,0.268 0.274,0.348 0.118,0.08 0.275,0.12 0.47,0.12 0.184,0 0.336,-0.038 0.457,-0.114 0.121,-0.076 0.215,-0.191 0.281,-0.345 z"
                 id="path5073"
                 inkscape:connector-curvature="0"
                 style="marker-start:none;marker-end:none" />
            </g>
          </g>
        </g>
      </g>
    </g>
  </g>
</svg>
