<?xml version="1.0" encoding="UTF-8" standalone="no"?>
<!--Generator: Xara Designer (www.xara.com), SVG filter version: 5.0.0.2-->

<svg
   xmlns:dc="http://purl.org/dc/elements/1.1/"
   xmlns:cc="http://creativecommons.org/ns#"
   xmlns:rdf="http://www.w3.org/1999/02/22-rdf-syntax-ns#"
   xmlns:svg="http://www.w3.org/2000/svg"
   xmlns="http://www.w3.org/2000/svg"
   xmlns:sodipodi="http://sodipodi.sourceforge.net/DTD/sodipodi-0.dtd"
   xmlns:inkscape="http://www.inkscape.org/namespaces/inkscape"
   stroke-width="0.501"
   stroke-linejoin="bevel"
   fill-rule="evenodd"
   version="1.1"
   overflow="visible"
   width="18pt"
   height="18pt"
   viewBox="0 0 18 18"
   id="svg4781"
   sodipodi:docname="DRgrey_MUI1.svg"
   inkscape:version="0.92.5 (2060ec1f9f, 2020-04-08)">
  <metadata
     id="metadata4785">
    <rdf:RDF>
      <cc:Work
         rdf:about="">
        <dc:format>image/svg+xml</dc:format>
        <dc:type
           rdf:resource="http://purl.org/dc/dcmitype/StillImage" />
        <dc:title></dc:title>
      </cc:Work>
    </rdf:RDF>
  </metadata>
  <sodipodi:namedview
     pagecolor="#ffffff"
     bordercolor="#666666"
     borderopacity="1"
     objecttolerance="10"
     gridtolerance="10"
     guidetolerance="10"
     inkscape:pageopacity="0"
     inkscape:pageshadow="2"
     inkscape:window-width="1920"
     inkscape:window-height="1056"
     id="namedview4783"
     showgrid="false"
     inkscape:zoom="25.573695"
     inkscape:cx="5.6436352"
     inkscape:cy="10.785992"
     inkscape:window-x="0"
     inkscape:window-y="0"
     inkscape:window-maximized="1"
     inkscape:current-layer="svg4781" />
  <defs
     id="defs4747">
    <marker
       id="DefaultArrow2"
       markerUnits="strokeWidth"
       viewBox="0 0 1 1"
       markerWidth="1"
       markerHeight="1"
       overflow="visible"
       orient="auto">
      <!-- REF_ARROW_STRAIGHT (-2) -->
      <g
         transform="scale(0.0092592592)"
         id="g4672">
        <!-- 1/108 -->
        <path
           d="M -9 54 L -9 -54 L 117 0 z"
           id="path4670" />
      </g>
    </marker>
    <marker
       id="DefaultArrow3"
       markerUnits="strokeWidth"
       viewBox="0 0 1 1"
       markerWidth="1"
       markerHeight="1"
       overflow="visible"
       orient="auto">
      <!-- REF_ARROW_ANGLED -->
      <g
         transform="scale(0.0092592592)"
         id="g4677">
        <path
           d="M -27 54 L -9 0 L -27 -54 L 135 0 z"
           id="path4675" />
      </g>
    </marker>
    <marker
       id="DefaultArrow4"
       markerUnits="strokeWidth"
       viewBox="0 0 1 1"
       markerWidth="1"
       markerHeight="1"
       overflow="visible"
       orient="auto">
      <!-- REF_ARROW_ROUNDED -->
      <g
         transform="scale(0.0092592592)"
         id="g4682">
        <path
           d="M -9,0 L -9,-45 C -9,-51.708 2.808,-56.580 9,-54 L 117,-9 C 120.916,-7.369 126.000,-4.242 126,0 C 126,4.242 120.916,7.369 117,9 L 9,54 C 2.808,56.580 -9,51.708 -9,45 z"
           id="path4680" />
      </g>
    </marker>
    <marker
       id="DefaultArrow5"
       markerUnits="strokeWidth"
       viewBox="0 0 1 1"
       markerWidth="1"
       markerHeight="1"
       overflow="visible"
       orient="auto">
      <!-- REF_ARROW_SPOT -->
      <g
         transform="scale(0.0092592592)"
         id="g4687">
        <path
           d="M -54, 0 C -54,29.807 -29.807,54 0,54 C 29.807,54 54,29.807 54,0 C 54,-29.807 29.807,-54 0,-54 C -29.807,-54 -54,-29.807 -54,0 z"
           id="path4685" />
      </g>
    </marker>
    <marker
       id="DefaultArrow6"
       markerUnits="strokeWidth"
       viewBox="0 0 1 1"
       markerWidth="1"
       markerHeight="1"
       overflow="visible"
       orient="auto">
      <!-- REF_ARROW_DIAMOND -->
      <g
         transform="scale(0.0092592592)"
         id="g4692">
        <path
           d="M -63,0 L 0,63 L 63,0 L 0,-63 z"
           id="path4690" />
      </g>
    </marker>
    <marker
       id="DefaultArrow7"
       markerUnits="strokeWidth"
       viewBox="0 0 1 1"
       markerWidth="1"
       markerHeight="1"
       overflow="visible"
       orient="auto">
      <!-- REF_ARROW_FEATHER -->
      <g
         transform="scale(0.0092592592)"
         id="g4697">
        <path
           d="M 18,-54 L 108,-54 L 63,0 L 108,54 L 18, 54 L -36,0 z"
           id="path4695" />
      </g>
    </marker>
    <marker
       id="DefaultArrow8"
       markerUnits="strokeWidth"
       viewBox="0 0 1 1"
       markerWidth="1"
       markerHeight="1"
       overflow="visible"
       orient="auto">
      <!-- REF_ARROW_FEATHER2 -->
      <g
         transform="scale(0.0092592592)"
         id="g4702">
        <path
           d="M -36,0 L 18,-54 L 54,-54 L 18,-18 L 27,-18 L 63,-54 L 99,-54 L 63,-18 L 72,-18 L 108,-54 L 144,-54 L 90,0 L 144,54 L 108,54 L 72,18 L 63,18 L 99,54 L 63,54 L 27,18 L 18,18 L 54,54 L 18,54 z"
           id="path4700" />
      </g>
    </marker>
    <marker
       id="DefaultArrow9"
       markerUnits="strokeWidth"
       viewBox="0 0 1 1"
       markerWidth="1"
       markerHeight="1"
       overflow="visible"
       orient="auto">
      <!-- REF_ARROW_HOLLOWDIAMOND -->
      <g
         transform="scale(0.0092592592)"
         id="g4707">
        <path
           d="M 0,45 L -45,0 L 0, -45 L 45, 0 z M 0, 63 L-63, 0 L 0, -63 L 63, 0 z"
           id="path4705" />
      </g>
    </marker>
    <filter
       id="StainedFilter">
      <feBlend
         mode="multiply"
         in2="BackgroundImage"
         in="SourceGraphic"
         result="blend"
         id="feBlend4710" />
      <feComposite
         in="blend"
         in2="SourceAlpha"
         operator="in"
         result="comp"
         id="feComposite4712" />
    </filter>
    <filter
       id="BleachFilter">
      <feBlend
         mode="screen"
         in2="BackgroundImage"
         in="SourceGraphic"
         result="blend"
         id="feBlend4715" />
      <feComposite
         in="blend"
         in2="SourceAlpha"
         operator="in"
         result="comp"
         id="feComposite4717" />
    </filter>
    <filter
       id="InvertTransparencyBitmapFilter">
      <feComponentTransfer
         id="feComponentTransfer4726">
        <feFuncR
           type="gamma"
           amplitude="1.055"
           exponent=".416666666"
           offset="-0.055"
           id="feFuncR4720" />
        <feFuncG
           type="gamma"
           amplitude="1.055"
           exponent=".416666666"
           offset="-0.055"
           id="feFuncG4722" />
        <feFuncB
           type="gamma"
           amplitude="1.055"
           exponent=".416666666"
           offset="-0.055"
           id="feFuncB4724" />
      </feComponentTransfer>
      <feComponentTransfer
         id="feComponentTransfer4736">
        <feFuncR
           type="linear"
           slope="-1"
           intercept="1"
           id="feFuncR4728" />
        <feFuncG
           type="linear"
           slope="-1"
           intercept="1"
           id="feFuncG4730" />
        <feFuncB
           type="linear"
           slope="-1"
           intercept="1"
           id="feFuncB4732" />
        <feFuncA
           type="linear"
           slope="1"
           intercept="0"
           id="feFuncA4734" />
      </feComponentTransfer>
      <feComponentTransfer
         id="feComponentTransfer4744">
        <feFuncR
           type="gamma"
           amplitude="1"
           exponent="2.4"
           offset="0"
           id="feFuncR4738" />
        <feFuncG
           type="gamma"
           amplitude="1"
           exponent="2.4"
           offset="0"
           id="feFuncG4740" />
        <feFuncB
           type="gamma"
           amplitude="1"
           exponent="2.4"
           offset="0"
           id="feFuncB4742" />
      </feComponentTransfer>
    </filter>
    <clipPath
       clipPathUnits="userSpaceOnUse"
       id="clipPath4789">
      <rect
         style="fill:none;stroke:#000000;stroke-width:0;stroke-miterlimit:2"
         id="rect4791"
         width="18.000999"
         height="18.000999"
         x="0"
         y="-0.00099999993"
         transform="scale(1,-1)" />
    </clipPath>
  </defs>
  <g
     id="Document"
     font-size="16"
     transform="translate(-4.9972534e-4,17.9995)"
     style="font-size:16px;font-family:'Times New Roman';fill:none;stroke:#000000"
     clip-path="url(#clipPath4789)">
    <g
       id="Spread"
       transform="translate(0,-18)">
      <g
         id="Layer 1">
        <path
           d="m 25.057,9.418 h 24 v -24 h -24 v 24"
           id="path4749"
           inkscape:connector-curvature="0"
           style="stroke:none" />
        <path
           d="m 33.471,-1.769 c 0,2.241 1.88,4.06 4.196,4.06 2.316,0 4.196,-1.819 4.196,-4.06 0,-2.241 -1.88,-4.06 -4.196,-4.06 -2.316,0 -4.196,1.819 -4.196,4.06 z"
           stroke-miterlimit="79.8403193612775"
           id="path4751"
           inkscape:connector-curvature="0"
           style="fill:#800000;fill-opacity:0;fill-rule:evenodd;stroke:none;stroke-width:0;stroke-linejoin:round;stroke-miterlimit:79.84031677;stroke-opacity:0.85097997;marker-start:none;marker-end:none" />
        <path
           d="M 0,0 V 18.001 H 18.001 V 0 Z"
           stroke-miterlimit="79.8403193612775"
           id="path4753"
           inkscape:connector-curvature="0"
           style="fill:#898989;stroke:none;stroke-width:0.75;stroke-linejoin:miter;stroke-miterlimit:79.84031677;marker-start:none;marker-end:none" />
        <g
           id="Group">
          <g
             id="Group_1"
             style="fill:#b4b4b4">
            <path
               d="M 1.144,6.486 H 16.855"
               stroke-miterlimit="79.8403193612775"
               id="path4755"
               inkscape:connector-curvature="0"
               style="fill:none;stroke:#b4b4b4;stroke-width:0.78500003;stroke-linecap:round;stroke-linejoin:round;stroke-miterlimit:79.84031677" />
            <path
               d="M 8.978,4.611 C 10.013,4.599 10.863,5.429 10.875,6.464 10.887,7.499 10.057,8.349 9.022,8.361 7.987,8.373 7.137,7.543 7.125,6.508 7.113,5.473 7.943,4.623 8.978,4.611 Z"
               stroke-miterlimit="79.8403193612775"
               id="path4757"
               inkscape:connector-curvature="0"
               style="stroke:none;stroke-width:0.23800001;stroke-linejoin:miter;stroke-miterlimit:79.84031677;marker-start:none;marker-end:none" />
          </g>
          <path
             d="M 3.379,6.358 C 3.48,3.255 6.082,0.819 9.185,0.92 c 3.024,0.099 5.416,2.574 5.44,5.573 H 3.376 c 0,-0.044 10e-4,-0.089 0.003,-0.135 z"
             stroke-miterlimit="79.8403193612775"
             id="path4760"
             inkscape:connector-curvature="0"
             style="stroke:#b4b4b4;stroke-width:0.75;stroke-linejoin:miter;stroke-miterlimit:79.84031677;marker-start:none;marker-end:none" />
        </g>
        <g
           id="Group_2"
           stroke-miterlimit="79.8403193612775"
           style="fill:#b4b4b4;fill-rule:nonzero;stroke:none;stroke-width:0.375;stroke-linecap:round;stroke-linejoin:round;stroke-miterlimit:79.84031677">
          <g
             id="Group_3">
            <path
               d="m 8.871,10.718 c 0,0.397 -0.086,0.756 -0.259,1.078 -0.173,0.323 -0.403,0.573 -0.69,0.75 -0.199,0.123 -0.421,0.212 -0.666,0.267 -0.245,0.055 -0.568,0.082 -0.969,0.082 H 5.186 V 8.533 h 1.09 c 0.425,0 0.764,0.031 1.015,0.092 0.251,0.062 0.463,0.146 0.637,0.254 0.297,0.185 0.528,0.432 0.694,0.741 0.166,0.308 0.249,0.675 0.249,1.098 z M 8.265,10.71 C 8.265,10.368 8.205,10.08 8.086,9.845 7.967,9.611 7.789,9.426 7.553,9.292 7.381,9.194 7.199,9.126 7.005,9.088 6.812,9.05 6.58,9.031 6.311,9.031 H 5.766 v 3.366 h 0.545 c 0.279,0 0.523,-0.02 0.731,-0.062 0.208,-0.041 0.399,-0.117 0.572,-0.228 0.217,-0.139 0.38,-0.321 0.488,-0.548 0.109,-0.226 0.163,-0.51 0.163,-0.849 z"
               id="path4763"
               inkscape:connector-curvature="0"
               style="marker-start:none;marker-end:none" />
            <path
               d="m 13.418,12.895 h -0.753 l -1.461,-1.734 h -0.815 v 1.734 H 9.809 V 8.533 h 1.221 c 0.264,0 0.484,0.017 0.66,0.051 0.175,0.034 0.334,0.095 0.474,0.183 0.158,0.1 0.282,0.225 0.371,0.377 0.089,0.151 0.133,0.343 0.133,0.575 0,0.315 -0.079,0.578 -0.237,0.79 -0.158,0.212 -0.376,0.371 -0.653,0.479 z M 12.062,9.76 C 12.062,9.635 12.04,9.525 11.996,9.428 11.952,9.331 11.879,9.25 11.778,9.183 11.694,9.127 11.594,9.087 11.479,9.065 11.363,9.042 11.228,9.031 11.072,9.031 h -0.683 v 1.646 h 0.586 c 0.183,0 0.344,-0.016 0.48,-0.048 0.137,-0.032 0.253,-0.092 0.349,-0.18 0.088,-0.082 0.153,-0.176 0.195,-0.283 0.042,-0.106 0.063,-0.241 0.063,-0.406 z"
               id="path4765"
               inkscape:connector-curvature="0"
               style="marker-start:none;marker-end:none" />
          </g>
          <g
             id="Group_4">
            <path
               d="m 4.788,15.452 c 0,0.783 -0.123,1.357 -0.368,1.724 -0.245,0.366 -0.625,0.549 -1.141,0.549 -0.523,0 -0.906,-0.186 -1.147,-0.557 C 1.891,16.797 1.77,16.227 1.77,15.457 c 0,-0.775 0.122,-1.348 0.367,-1.718 0.244,-0.37 0.624,-0.555 1.142,-0.555 0.524,0 0.906,0.188 1.147,0.564 0.241,0.376 0.362,0.944 0.362,1.704 z m -0.771,1.33 C 4.086,16.623 4.132,16.437 4.156,16.223 4.181,16.01 4.193,15.752 4.193,15.452 4.193,15.155 4.181,14.897 4.156,14.678 4.132,14.459 4.085,14.274 4.014,14.122 3.946,13.971 3.853,13.858 3.735,13.782 3.616,13.706 3.465,13.667 3.279,13.667 c -0.184,0 -0.335,0.039 -0.456,0.115 -0.12,0.076 -0.215,0.191 -0.285,0.345 -0.066,0.145 -0.112,0.333 -0.136,0.566 -0.025,0.232 -0.037,0.487 -0.037,0.764 0,0.305 0.011,0.56 0.032,0.765 0.022,0.205 0.068,0.389 0.138,0.551 0.064,0.152 0.156,0.268 0.274,0.348 0.118,0.08 0.275,0.12 0.47,0.12 0.184,0 0.336,-0.038 0.457,-0.114 0.121,-0.076 0.215,-0.191 0.281,-0.345 z"
               id="path4768"
               inkscape:connector-curvature="0"
               style="marker-start:none;marker-end:none" />
            <path
               d="m 8.602,15.191 c 0,0.381 -0.044,0.726 -0.131,1.037 -0.087,0.31 -0.218,0.575 -0.394,0.794 -0.177,0.222 -0.4,0.394 -0.668,0.515 -0.267,0.121 -0.582,0.182 -0.943,0.182 -0.101,0 -0.197,-0.005 -0.287,-0.016 -0.09,-0.011 -0.17,-0.028 -0.24,-0.051 v -0.56 h 0.029 c 0.057,0.029 0.137,0.057 0.24,0.084 0.104,0.026 0.219,0.039 0.346,0.039 0.432,0 0.77,-0.129 1.015,-0.388 0.245,-0.259 0.387,-0.616 0.426,-1.071 -0.181,0.11 -0.352,0.188 -0.512,0.235 -0.16,0.046 -0.335,0.07 -0.525,0.07 -0.179,0 -0.342,-0.018 -0.487,-0.053 C 6.325,15.973 6.179,15.905 6.033,15.803 5.861,15.684 5.731,15.533 5.644,15.349 5.557,15.165 5.514,14.946 5.514,14.69 c 0,-0.445 0.146,-0.808 0.439,-1.087 0.293,-0.279 0.651,-0.419 1.073,-0.419 0.211,0 0.406,0.033 0.586,0.098 0.179,0.066 0.336,0.164 0.471,0.295 0.166,0.162 0.294,0.37 0.384,0.625 0.09,0.255 0.135,0.585 0.135,0.989 z M 8.01,15.065 C 8.01,14.762 7.979,14.519 7.916,14.335 7.854,14.152 7.768,14.009 7.658,13.908 7.567,13.82 7.468,13.757 7.363,13.719 7.257,13.681 7.143,13.662 7.02,13.662 c -0.281,0 -0.504,0.087 -0.667,0.263 -0.163,0.176 -0.244,0.423 -0.244,0.741 0,0.186 0.026,0.337 0.079,0.454 0.053,0.118 0.141,0.22 0.266,0.308 0.088,0.061 0.185,0.101 0.29,0.122 0.106,0.02 0.223,0.03 0.352,0.03 0.152,0 0.307,-0.02 0.463,-0.061 C 7.715,15.478 7.862,15.418 7.998,15.34 8,15.299 8.003,15.259 8.006,15.219 8.008,15.179 8.01,15.127 8.01,15.065 Z"
               id="path4770"
               inkscape:connector-curvature="0"
               style="marker-start:none;marker-end:none" />
            <path
               d="m 12.416,15.452 c 0,0.783 -0.123,1.357 -0.368,1.724 -0.245,0.366 -0.625,0.549 -1.141,0.549 -0.523,0 -0.906,-0.186 -1.147,-0.557 -0.241,-0.371 -0.362,-0.941 -0.362,-1.711 0,-0.775 0.122,-1.348 0.367,-1.718 0.244,-0.37 0.624,-0.555 1.142,-0.555 0.524,0 0.906,0.188 1.147,0.564 0.241,0.376 0.362,0.944 0.362,1.704 z m -0.771,1.33 c 0.069,-0.159 0.115,-0.345 0.139,-0.559 0.025,-0.213 0.037,-0.471 0.037,-0.771 0,-0.297 -0.012,-0.555 -0.037,-0.774 -0.024,-0.219 -0.071,-0.404 -0.142,-0.556 -0.068,-0.151 -0.161,-0.264 -0.279,-0.34 -0.119,-0.076 -0.27,-0.115 -0.456,-0.115 -0.184,0 -0.335,0.039 -0.456,0.115 -0.12,0.076 -0.215,0.191 -0.285,0.345 -0.066,0.145 -0.112,0.333 -0.136,0.566 -0.025,0.232 -0.037,0.487 -0.037,0.764 0,0.305 0.011,0.56 0.032,0.765 0.022,0.205 0.068,0.389 0.138,0.551 0.064,0.152 0.156,0.268 0.274,0.348 0.118,0.08 0.275,0.12 0.47,0.12 0.184,0 0.336,-0.038 0.457,-0.114 0.121,-0.076 0.215,-0.191 0.281,-0.345 z"
               id="path4772"
               inkscape:connector-curvature="0"
               style="marker-start:none;marker-end:none" />
            <path
               d="m 16.23,15.452 c 0,0.783 -0.123,1.357 -0.368,1.724 -0.245,0.366 -0.625,0.549 -1.141,0.549 -0.523,0 -0.906,-0.186 -1.147,-0.557 -0.241,-0.371 -0.362,-0.941 -0.362,-1.711 0,-0.775 0.122,-1.348 0.367,-1.718 0.244,-0.37 0.624,-0.555 1.142,-0.555 0.524,0 0.906,0.188 1.147,0.564 0.241,0.376 0.362,0.944 0.362,1.704 z m -0.771,1.33 c 0.069,-0.159 0.115,-0.345 0.139,-0.559 0.025,-0.213 0.037,-0.471 0.037,-0.771 0,-0.297 -0.012,-0.555 -0.037,-0.774 -0.024,-0.219 -0.071,-0.404 -0.142,-0.556 -0.068,-0.151 -0.161,-0.264 -0.279,-0.34 -0.119,-0.076 -0.27,-0.115 -0.456,-0.115 -0.184,0 -0.335,0.039 -0.456,0.115 -0.12,0.076 -0.215,0.191 -0.285,0.345 -0.066,0.145 -0.112,0.333 -0.136,0.566 -0.025,0.232 -0.037,0.487 -0.037,0.764 0,0.305 0.011,0.56 0.032,0.765 0.022,0.205 0.068,0.389 0.138,0.551 0.064,0.152 0.156,0.268 0.274,0.348 0.118,0.08 0.275,0.12 0.47,0.12 0.184,0 0.336,-0.038 0.457,-0.114 0.121,-0.076 0.215,-0.191 0.281,-0.345 z"
               id="path4774"
               inkscape:connector-curvature="0"
               style="marker-start:none;marker-end:none" />
          </g>
        </g>
      </g>
    </g>
  </g>
</svg>
