<?xml version="1.0" encoding="UTF-8" standalone="no"?>
<!-- Created with Inkscape (http://www.inkscape.org/) -->

<svg
   xmlns:dc="http://purl.org/dc/elements/1.1/"
   xmlns:cc="http://creativecommons.org/ns#"
   xmlns:rdf="http://www.w3.org/1999/02/22-rdf-syntax-ns#"
   xmlns:svg="http://www.w3.org/2000/svg"
   xmlns="http://www.w3.org/2000/svg"
   xmlns:sodipodi="http://sodipodi.sourceforge.net/DTD/sodipodi-0.dtd"
   xmlns:inkscape="http://www.inkscape.org/namespaces/inkscape"
   width="32"
   height="32"
   viewBox="0 0 32 32.000001"
   id="svg8497"
   version="1.1"
   inkscape:version="0.91 r"
   sodipodi:docname="DRgrey-inkscape.svg">
  <defs
     id="defs8499" />
  <sodipodi:namedview
     id="base"
     pagecolor="#ffffff"
     bordercolor="#666666"
     borderopacity="1.0"
     inkscape:pageopacity="0.0"
     inkscape:pageshadow="2"
     inkscape:zoom="11.2"
     inkscape:cx="-20.549444"
     inkscape:cy="16.3253"
     inkscape:document-units="px"
     inkscape:current-layer="layer1"
     showgrid="false"
     units="px"
     inkscape:window-width="1920"
     inkscape:window-height="1053"
     inkscape:window-x="0"
     inkscape:window-y="0"
     inkscape:window-maximized="1" />
  <metadata
     id="metadata8502">
    <rdf:RDF>
      <cc:Work
         rdf:about="">
        <dc:format>image/svg+xml</dc:format>
        <dc:type
           rdf:resource="http://purl.org/dc/dcmitype/StillImage" />
        <dc:title></dc:title>
      </cc:Work>
    </rdf:RDF>
  </metadata>
  <g
     inkscape:label="Layer 1"
     inkscape:groupmode="layer"
     id="layer1"
     transform="translate(0,-1020.3622)">
    <rect
       style="fill:#dbdbdb;fill-opacity:1"
       id="rect3628"
       width="31.999996"
       height="31.999996"
       x="-0.01612927"
       y="1020.3853" />
    <rect
       style="fill:#0000ff;fill-opacity:1"
       id="rect3561"
       width="6.5495658"
       height="6.1565666"
       x="770.39154"
       y="701.99219"
       transform="matrix(0.67891579,0.73421615,-0.73631408,0.67663992,0,0)" />
    <rect
       style="fill:#dbdbdb;fill-opacity:1"
       id="rect3561-9"
       width="3.6742709"
       height="3.4538002"
       x="771.80133"
       y="703.25739"
       transform="matrix(0.67891579,0.73421615,-0.73631408,0.67663992,0,0)" />
    <ellipse
       style="fill:#ff0000;fill-opacity:1"
       id="path3578"
       cx="6.0219235"
       cy="1044.92"
       rx="1.1461211"
       ry="1.0637696" />
    <rect
       style="fill:#0000ff;fill-opacity:1"
       id="rect3561-8"
       width="6.5495658"
       height="6.1565666"
       x="769.57672"
       y="674.53748"
       transform="matrix(0.67891579,0.73421615,-0.73631408,0.67663992,0,0)" />
    <rect
       style="fill:#dbdbdb;fill-opacity:1"
       id="rect3561-9-2"
       width="3.6742709"
       height="3.4538002"
       x="770.98645"
       y="675.80273"
       transform="matrix(0.67891579,0.73421615,-0.73631408,0.67663992,0,0)" />
    <ellipse
       style="fill:#ff0000;fill-opacity:1"
       id="path3578-0"
       cx="25.683981"
       cy="1025.7449"
       rx="1.1461211"
       ry="1.0637696" />
    <path
       style="fill:#9adbe4;fill-opacity:1"
       d=""
       id="path3503"
       inkscape:connector-curvature="0" />
    <path
       style="fill:#9adbe4;fill-opacity:1"
       d=""
       id="path3507"
       inkscape:connector-curvature="0" />
    <path
       style="fill:#9adbe4;fill-opacity:1"
       d="m 25.509569,1029.4652 c 0.0085,0 0.02233,0 0.03079,0 0.0085,0 0.0015,0 -0.0154,0 -0.01694,0 -0.02386,0 -0.0154,0 z"
       id="path3533"
       inkscape:connector-curvature="0" />
    <path
       style="fill:#9adbe4;fill-opacity:1"
       d=""
       id="path3557"
       inkscape:connector-curvature="0" />
    <rect
       style="fill:#0000ff;fill-opacity:1"
       id="rect3609"
       width="21.692776"
       height="2.6317401"
       x="-662.54218"
       y="747.9975"
       ry="0"
       transform="matrix(0.70995095,-0.70425112,0.63862664,0.76951674,0,0)" />
    <g
       style="font-style:normal;font-weight:normal;font-size:21.50732803px;line-height:125%;font-family:Sans;letter-spacing:0px;word-spacing:0px;fill:#000000;fill-opacity:1;stroke:none;stroke-width:1px;stroke-linecap:butt;stroke-linejoin:miter;stroke-opacity:1"
       id="text8663">
      <path
         d="m 4.1721095,1028.7846 0,12.1923 2.5623965,0 q 3.2450021,0 4.746734,-1.4702 1.512234,-1.4702 1.512234,-4.6417 0,-3.1505 -1.512234,-4.6102 -1.5017319,-1.4702 -4.746734,-1.4702 l -2.5623965,0 z m -2.1213283,-1.7433 4.3581744,0 q 4.5577054,0 6.6895354,1.9008 2.13183,1.8903 2.13183,5.9229 0,4.0536 -2.142332,5.9544 -2.142331,1.9008 -6.6790334,1.9008 l -4.3581744,0 0,-15.6789 z"
         style=""
         id="path4163" />
      <path
         d="m 26.036494,1035.3691 q 0.682605,0.231 1.323204,0.9871 0.651101,0.7561 1.302202,2.0794 l 2.152833,4.2846 -2.278853,0 -2.00581,-4.0221 q -0.77712,-1.5753 -1.512234,-2.0898 -0.724612,-0.5146 -1.984807,-0.5146 l -2.310358,0 0,6.6265 -2.121328,0 0,-15.6789 4.788741,0 q 2.688416,0 4.011621,1.1237 1.323205,1.1236 1.323205,3.392 0,1.4807 -0.693108,2.4574 -0.682605,0.9766 -1.995308,1.3547 z m -5.313823,-6.5845 0,5.5658 2.667413,0 q 1.533237,0 2.310358,-0.7036 0.787621,-0.7141 0.787621,-2.0898 0,-1.3757 -0.787621,-2.0688 -0.777121,-0.7036 -2.310358,-0.7036 l -2.667413,0 z"
         style=""
         id="path4165" />
    </g>
  </g>
</svg>
