<?xml version="1.0" standalone="no"?>
<!DOCTYPE svg PUBLIC "-//W3C//DTD SVG 1.1//EN" "http://www.w3.org/Graphics/SVG/1.1/DTD/svg11.dtd">
<!--Generator: Xara Designer (www.xara.com), SVG filter version: 5.0.0.2-->
<svg stroke-width="0.501" stroke-linejoin="bevel" fill-rule="evenodd" xmlns:xlink="http://www.w3.org/1999/xlink" xmlns="http://www.w3.org/2000/svg" version="1.1" overflow="visible" width="18pt" height="18pt" viewBox="0 0 18 18">
 <defs>
  <marker id="DefaultArrow2" markerUnits="strokeWidth" viewBox="0 0 1 1" markerWidth="1" markerHeight="1" overflow="visible" orient="auto">
   <!-- REF_ARROW_STRAIGHT (-2) -->
   <g transform="scale(0.0092592592)">
    <!-- 1/108 -->
    <path d="M -9 54 L -9 -54 L 117 0 z"/>
   </g>
  </marker>
  <marker id="DefaultArrow3" markerUnits="strokeWidth" viewBox="0 0 1 1" markerWidth="1" markerHeight="1" overflow="visible" orient="auto">
   <!-- REF_ARROW_ANGLED -->
   <g transform="scale(0.0092592592)">
    <path d="M -27 54 L -9 0 L -27 -54 L 135 0 z"/>
   </g>
  </marker>
  <marker id="DefaultArrow4" markerUnits="strokeWidth" viewBox="0 0 1 1" markerWidth="1" markerHeight="1" overflow="visible" orient="auto">
   <!-- REF_ARROW_ROUNDED -->
   <g transform="scale(0.0092592592)">
    <path d="M -9,0 L -9,-45 C -9,-51.708 2.808,-56.580 9,-54 L 117,-9 C 120.916,-7.369 126.000,-4.242 126,0 C 126,4.242 120.916,7.369 117,9 L 9,54 C 2.808,56.580 -9,51.708 -9,45 z"/>
   </g>
  </marker>
  <marker id="DefaultArrow5" markerUnits="strokeWidth" viewBox="0 0 1 1" markerWidth="1" markerHeight="1" overflow="visible" orient="auto">
   <!-- REF_ARROW_SPOT -->
   <g transform="scale(0.0092592592)">
    <path d="M -54, 0 C -54,29.807 -29.807,54 0,54 C 29.807,54 54,29.807 54,0 C 54,-29.807 29.807,-54 0,-54 C -29.807,-54 -54,-29.807 -54,0 z"/>
   </g>
  </marker>
  <marker id="DefaultArrow6" markerUnits="strokeWidth" viewBox="0 0 1 1" markerWidth="1" markerHeight="1" overflow="visible" orient="auto">
   <!-- REF_ARROW_DIAMOND -->
   <g transform="scale(0.0092592592)">
    <path d="M -63,0 L 0,63 L 63,0 L 0,-63 z"/>
   </g>
  </marker>
  <marker id="DefaultArrow7" markerUnits="strokeWidth" viewBox="0 0 1 1" markerWidth="1" markerHeight="1" overflow="visible" orient="auto">
   <!-- REF_ARROW_FEATHER -->
   <g transform="scale(0.0092592592)">
    <path d="M 18,-54 L 108,-54 L 63,0 L 108,54 L 18, 54 L -36,0 z"/>
   </g>
  </marker>
  <marker id="DefaultArrow8" markerUnits="strokeWidth" viewBox="0 0 1 1" markerWidth="1" markerHeight="1" overflow="visible" orient="auto">
   <!-- REF_ARROW_FEATHER2 -->
   <g transform="scale(0.0092592592)">
    <path d="M -36,0 L 18,-54 L 54,-54 L 18,-18 L 27,-18 L 63,-54 L 99,-54 L 63,-18 L 72,-18 L 108,-54 L 144,-54 L 90,0 L 144,54 L 108,54 L 72,18 L 63,18 L 99,54 L 63,54 L 27,18 L 18,18 L 54,54 L 18,54 z"/>
   </g>
  </marker>
  <marker id="DefaultArrow9" markerUnits="strokeWidth" viewBox="0 0 1 1" markerWidth="1" markerHeight="1" overflow="visible" orient="auto">
   <!-- REF_ARROW_HOLLOWDIAMOND -->
   <g transform="scale(0.0092592592)">
    <path d="M 0,45 L -45,0 L 0, -45 L 45, 0 z M 0, 63 L-63, 0 L 0, -63 L 63, 0 z"/>
   </g>
  </marker>
  <filter id="StainedFilter">
   <feBlend mode="multiply" in2="BackgroundImage" in="SourceGraphic" result="blend"/>
   <feComposite in="blend" in2="SourceAlpha" operator="in" result="comp"/>
  </filter>
  <filter id="BleachFilter">
   <feBlend mode="screen" in2="BackgroundImage" in="SourceGraphic" result="blend"/>
   <feComposite in="blend" in2="SourceAlpha" operator="in" result="comp"/>
  </filter>
  <filter id="InvertTransparencyBitmapFilter">
   <feComponentTransfer>
    <feFuncR type="gamma" amplitude="1.055" exponent=".416666666" offset="-0.055"/>
    <feFuncG type="gamma" amplitude="1.055" exponent=".416666666" offset="-0.055"/>
    <feFuncB type="gamma" amplitude="1.055" exponent=".416666666" offset="-0.055"/>
   </feComponentTransfer>
   <feComponentTransfer>
    <feFuncR type="linear" slope="-1" intercept="1"/>
    <feFuncG type="linear" slope="-1" intercept="1"/>
    <feFuncB type="linear" slope="-1" intercept="1"/>
    <feFuncA type="linear" slope="1" intercept="0"/>
   </feComponentTransfer>
   <feComponentTransfer>
    <feFuncR type="gamma" amplitude="1" exponent="2.4" offset="0"/>
    <feFuncG type="gamma" amplitude="1" exponent="2.4" offset="0"/>
    <feFuncB type="gamma" amplitude="1" exponent="2.4" offset="0"/>
   </feComponentTransfer>
  </filter>
 </defs>
 <g id="Document" fill="none" stroke="black" font-family="Times New Roman" font-size="16" transform="scale(1 -1)">
  <g id="Spread" transform="translate(0 -18)">
   <g id="Layer 1">
    <path d="M 25.057,9.418 L 49.057,9.418 L 49.057,-14.582 L 25.057,-14.582 L 25.057,9.418" stroke="none"/>
    <path d="M 33.471,-1.769 C 33.471,0.472 35.351,2.291 37.667,2.291 C 39.983,2.291 41.863,0.472 41.863,-1.769 C 41.863,-4.01 39.983,-5.829 37.667,-5.829 C 35.351,-5.829 33.471,-4.01 33.471,-1.769 Z" stroke="none" stroke-opacity="0.850980" fill="#800000" stroke-width="0" fill-rule="evenodd" stroke-linejoin="round" marker-start="none" marker-end="none" stroke-miterlimit="79.8403193612775" fill-opacity="0.000000"/>
    <path d="M 0,0 L 0,18.001 L 18.001,18.001 L 18.001,0 L 0,0 Z" stroke-width="0.75" stroke="none" fill="#898989" stroke-linejoin="miter" marker-start="none" marker-end="none" stroke-miterlimit="79.8403193612775"/>
    <g id="Group">
     <g id="Group_1" fill="#b4b4b4">
      <path d="M 1.144,6.486 L 16.855,6.486" fill="none" stroke-width="0.785" stroke-linecap="round" stroke-linejoin="round" stroke="#b4b4b4" stroke-miterlimit="79.8403193612775"/>
      <path d="M 8.978,4.611 C 10.013,4.599 10.863,5.429 10.875,6.464 C 10.887,7.499 10.057,8.349 9.022,8.361 C 7.987,8.373 7.137,7.543 7.125,6.508 C 7.113,5.473 7.943,4.623 8.978,4.611 Z" stroke-linejoin="miter" stroke-width="0.238" stroke="none" marker-start="none" marker-end="none" stroke-miterlimit="79.8403193612775"/>
     </g>
     <path d="M 3.379,6.358 C 3.48,3.255 6.082,0.819 9.185,0.92 C 12.209,1.019 14.601,3.494 14.625,6.493 L 3.376,6.493 C 3.376,6.449 3.377,6.404 3.379,6.358 Z" stroke-linejoin="miter" stroke-width="0.75" stroke="#b4b4b4" marker-start="none" marker-end="none" stroke-miterlimit="79.8403193612775"/>
    </g>
    <g id="Group_2" fill-rule="nonzero" stroke-linejoin="round" stroke-linecap="round" stroke="none" stroke-width="0.375" fill="#b4b4b4" stroke-miterlimit="79.8403193612775">
     <g id="Group_3">
      <path d="M 8.871,10.718 C 8.871,11.115 8.785,11.474 8.612,11.796 C 8.439,12.119 8.209,12.369 7.922,12.546 C 7.723,12.669 7.501,12.758 7.256,12.813 C 7.011,12.868 6.688,12.895 6.287,12.895 L 5.186,12.895 L 5.186,8.533 L 6.276,8.533 C 6.701,8.533 7.04,8.564 7.291,8.625 C 7.542,8.687 7.754,8.771 7.928,8.879 C 8.225,9.064 8.456,9.311 8.622,9.62 C 8.788,9.928 8.871,10.295 8.871,10.718 Z M 8.265,10.71 C 8.265,10.368 8.205,10.08 8.086,9.845 C 7.967,9.611 7.789,9.426 7.553,9.292 C 7.381,9.194 7.199,9.126 7.005,9.088 C 6.812,9.05 6.58,9.031 6.311,9.031 L 5.766,9.031 L 5.766,12.397 L 6.311,12.397 C 6.59,12.397 6.834,12.377 7.042,12.335 C 7.25,12.294 7.441,12.218 7.614,12.107 C 7.831,11.968 7.994,11.786 8.102,11.559 C 8.211,11.333 8.265,11.049 8.265,10.71 Z" marker-start="none" marker-end="none"/>
      <path d="M 13.418,12.895 L 12.665,12.895 L 11.204,11.161 L 10.389,11.161 L 10.389,12.895 L 9.809,12.895 L 9.809,8.533 L 11.03,8.533 C 11.294,8.533 11.514,8.55 11.69,8.584 C 11.865,8.618 12.024,8.679 12.164,8.767 C 12.322,8.867 12.446,8.992 12.535,9.144 C 12.624,9.295 12.668,9.487 12.668,9.719 C 12.668,10.034 12.589,10.297 12.431,10.509 C 12.273,10.721 12.055,10.88 11.778,10.988 L 13.418,12.895 Z M 12.062,9.76 C 12.062,9.635 12.04,9.525 11.996,9.428 C 11.952,9.331 11.879,9.25 11.778,9.183 C 11.694,9.127 11.594,9.087 11.479,9.065 C 11.363,9.042 11.228,9.031 11.072,9.031 L 10.389,9.031 L 10.389,10.677 L 10.975,10.677 C 11.158,10.677 11.319,10.661 11.455,10.629 C 11.592,10.597 11.708,10.537 11.804,10.449 C 11.892,10.367 11.957,10.273 11.999,10.166 C 12.041,10.06 12.062,9.925 12.062,9.76 Z" marker-start="none" marker-end="none"/>
     </g>
     <g id="Group_4">
      <path d="M 4.788,15.452 C 4.788,16.235 4.665,16.809 4.42,17.176 C 4.175,17.542 3.795,17.725 3.279,17.725 C 2.756,17.725 2.373,17.539 2.132,17.168 C 1.891,16.797 1.77,16.227 1.77,15.457 C 1.77,14.682 1.892,14.109 2.137,13.739 C 2.381,13.369 2.761,13.184 3.279,13.184 C 3.803,13.184 4.185,13.372 4.426,13.748 C 4.667,14.124 4.788,14.692 4.788,15.452 Z M 4.017,16.782 C 4.086,16.623 4.132,16.437 4.156,16.223 C 4.181,16.01 4.193,15.752 4.193,15.452 C 4.193,15.155 4.181,14.897 4.156,14.678 C 4.132,14.459 4.085,14.274 4.014,14.122 C 3.946,13.971 3.853,13.858 3.735,13.782 C 3.616,13.706 3.465,13.667 3.279,13.667 C 3.095,13.667 2.944,13.706 2.823,13.782 C 2.703,13.858 2.608,13.973 2.538,14.127 C 2.472,14.272 2.426,14.46 2.402,14.693 C 2.377,14.925 2.365,15.18 2.365,15.457 C 2.365,15.762 2.376,16.017 2.397,16.222 C 2.419,16.427 2.465,16.611 2.535,16.773 C 2.599,16.925 2.691,17.041 2.809,17.121 C 2.927,17.201 3.084,17.241 3.279,17.241 C 3.463,17.241 3.615,17.203 3.736,17.127 C 3.857,17.051 3.951,16.936 4.017,16.782 Z" marker-start="none" marker-end="none"/>
      <path d="M 8.602,15.191 C 8.602,15.572 8.558,15.917 8.471,16.228 C 8.384,16.538 8.253,16.803 8.077,17.022 C 7.9,17.244 7.677,17.416 7.409,17.537 C 7.142,17.658 6.827,17.719 6.466,17.719 C 6.365,17.719 6.269,17.714 6.179,17.703 C 6.089,17.692 6.009,17.675 5.939,17.652 L 5.939,17.092 L 5.968,17.092 C 6.025,17.121 6.105,17.149 6.208,17.176 C 6.312,17.202 6.427,17.215 6.554,17.215 C 6.986,17.215 7.324,17.086 7.569,16.827 C 7.814,16.568 7.956,16.211 7.995,15.756 C 7.814,15.866 7.643,15.944 7.483,15.991 C 7.323,16.037 7.148,16.061 6.958,16.061 C 6.779,16.061 6.616,16.043 6.471,16.008 C 6.325,15.973 6.179,15.905 6.033,15.803 C 5.861,15.684 5.731,15.533 5.644,15.349 C 5.557,15.165 5.514,14.946 5.514,14.69 C 5.514,14.245 5.66,13.882 5.953,13.603 C 6.246,13.324 6.604,13.184 7.026,13.184 C 7.237,13.184 7.432,13.217 7.612,13.282 C 7.791,13.348 7.948,13.446 8.083,13.577 C 8.249,13.739 8.377,13.947 8.467,14.202 C 8.557,14.457 8.602,14.787 8.602,15.191 Z M 8.01,15.065 C 8.01,14.762 7.979,14.519 7.916,14.335 C 7.854,14.152 7.768,14.009 7.658,13.908 C 7.567,13.82 7.468,13.757 7.363,13.719 C 7.257,13.681 7.143,13.662 7.02,13.662 C 6.739,13.662 6.516,13.749 6.353,13.925 C 6.19,14.101 6.109,14.348 6.109,14.666 C 6.109,14.852 6.135,15.003 6.188,15.12 C 6.241,15.238 6.329,15.34 6.454,15.428 C 6.542,15.489 6.639,15.529 6.744,15.55 C 6.85,15.57 6.967,15.58 7.096,15.58 C 7.248,15.58 7.403,15.56 7.559,15.519 C 7.715,15.478 7.862,15.418 7.998,15.34 C 8,15.299 8.003,15.259 8.006,15.219 C 8.008,15.179 8.01,15.127 8.01,15.065 Z" marker-start="none" marker-end="none"/>
      <path d="M 12.416,15.452 C 12.416,16.235 12.293,16.809 12.048,17.176 C 11.803,17.542 11.423,17.725 10.907,17.725 C 10.384,17.725 10.001,17.539 9.76,17.168 C 9.519,16.797 9.398,16.227 9.398,15.457 C 9.398,14.682 9.52,14.109 9.765,13.739 C 10.009,13.369 10.389,13.184 10.907,13.184 C 11.431,13.184 11.813,13.372 12.054,13.748 C 12.295,14.124 12.416,14.692 12.416,15.452 Z M 11.645,16.782 C 11.714,16.623 11.76,16.437 11.784,16.223 C 11.809,16.01 11.821,15.752 11.821,15.452 C 11.821,15.155 11.809,14.897 11.784,14.678 C 11.76,14.459 11.713,14.274 11.642,14.122 C 11.574,13.971 11.481,13.858 11.363,13.782 C 11.244,13.706 11.093,13.667 10.907,13.667 C 10.723,13.667 10.572,13.706 10.451,13.782 C 10.331,13.858 10.236,13.973 10.166,14.127 C 10.1,14.272 10.054,14.46 10.03,14.693 C 10.005,14.925 9.993,15.18 9.993,15.457 C 9.993,15.762 10.004,16.017 10.025,16.222 C 10.047,16.427 10.093,16.611 10.163,16.773 C 10.227,16.925 10.319,17.041 10.437,17.121 C 10.555,17.201 10.712,17.241 10.907,17.241 C 11.091,17.241 11.243,17.203 11.364,17.127 C 11.485,17.051 11.579,16.936 11.645,16.782 Z" marker-start="none" marker-end="none"/>
      <path d="M 16.23,15.452 C 16.23,16.235 16.107,16.809 15.862,17.176 C 15.617,17.542 15.237,17.725 14.721,17.725 C 14.198,17.725 13.815,17.539 13.574,17.168 C 13.333,16.797 13.212,16.227 13.212,15.457 C 13.212,14.682 13.334,14.109 13.579,13.739 C 13.823,13.369 14.203,13.184 14.721,13.184 C 15.245,13.184 15.627,13.372 15.868,13.748 C 16.109,14.124 16.23,14.692 16.23,15.452 Z M 15.459,16.782 C 15.528,16.623 15.574,16.437 15.598,16.223 C 15.623,16.01 15.635,15.752 15.635,15.452 C 15.635,15.155 15.623,14.897 15.598,14.678 C 15.574,14.459 15.527,14.274 15.456,14.122 C 15.388,13.971 15.295,13.858 15.177,13.782 C 15.058,13.706 14.907,13.667 14.721,13.667 C 14.537,13.667 14.386,13.706 14.265,13.782 C 14.145,13.858 14.05,13.973 13.98,14.127 C 13.914,14.272 13.868,14.46 13.844,14.693 C 13.819,14.925 13.807,15.18 13.807,15.457 C 13.807,15.762 13.818,16.017 13.839,16.222 C 13.861,16.427 13.907,16.611 13.977,16.773 C 14.041,16.925 14.133,17.041 14.251,17.121 C 14.369,17.201 14.526,17.241 14.721,17.241 C 14.905,17.241 15.057,17.203 15.178,17.127 C 15.299,17.051 15.393,16.936 15.459,16.782 Z" marker-start="none" marker-end="none"/>
     </g>
    </g>
   </g>
  </g>
 </g>
</svg>
