<?xml version="1.0" encoding="UTF-8" standalone="no"?>
<!--Generator: Xara Designer (www.xara.com), SVG filter version: 5.0.0.2-->

<svg
   xmlns:dc="http://purl.org/dc/elements/1.1/"
   xmlns:cc="http://creativecommons.org/ns#"
   xmlns:rdf="http://www.w3.org/1999/02/22-rdf-syntax-ns#"
   xmlns:svg="http://www.w3.org/2000/svg"
   xmlns="http://www.w3.org/2000/svg"
   xmlns:sodipodi="http://sodipodi.sourceforge.net/DTD/sodipodi-0.dtd"
   xmlns:inkscape="http://www.inkscape.org/namespaces/inkscape"
   stroke-width="0.501"
   stroke-linejoin="bevel"
   fill-rule="evenodd"
   version="1.1"
   overflow="visible"
   width="18pt"
   height="18pt"
   viewBox="0 0 18 18"
   id="svg5685"
   sodipodi:docname="EBL_MUI1.svg"
   inkscape:version="0.92.5 (2060ec1f9f, 2020-04-08)">
  <metadata
     id="metadata5689">
    <rdf:RDF>
      <cc:Work
         rdf:about="">
        <dc:format>image/svg+xml</dc:format>
        <dc:type
           rdf:resource="http://purl.org/dc/dcmitype/StillImage" />
        <dc:title></dc:title>
      </cc:Work>
    </rdf:RDF>
  </metadata>
  <sodipodi:namedview
     pagecolor="#ffffff"
     bordercolor="#666666"
     borderopacity="1"
     objecttolerance="10"
     gridtolerance="10"
     guidetolerance="10"
     inkscape:pageopacity="0"
     inkscape:pageshadow="2"
     inkscape:window-width="1920"
     inkscape:window-height="1056"
     id="namedview5687"
     showgrid="false"
     inkscape:zoom="36.166667"
     inkscape:cx="12"
     inkscape:cy="12"
     inkscape:window-x="0"
     inkscape:window-y="0"
     inkscape:window-maximized="1"
     inkscape:current-layer="svg5685" />
  <defs
     id="defs5650">
    <marker
       id="DefaultArrow2"
       markerUnits="strokeWidth"
       viewBox="0 0 1 1"
       markerWidth="1"
       markerHeight="1"
       overflow="visible"
       orient="auto">
      <!-- REF_ARROW_STRAIGHT (-2) -->
      <g
         transform="scale(0.0092592592)"
         id="g5575">
        <!-- 1/108 -->
        <path
           d="M -9 54 L -9 -54 L 117 0 z"
           id="path5573" />
      </g>
    </marker>
    <marker
       id="DefaultArrow3"
       markerUnits="strokeWidth"
       viewBox="0 0 1 1"
       markerWidth="1"
       markerHeight="1"
       overflow="visible"
       orient="auto">
      <!-- REF_ARROW_ANGLED -->
      <g
         transform="scale(0.0092592592)"
         id="g5580">
        <path
           d="M -27 54 L -9 0 L -27 -54 L 135 0 z"
           id="path5578" />
      </g>
    </marker>
    <marker
       id="DefaultArrow4"
       markerUnits="strokeWidth"
       viewBox="0 0 1 1"
       markerWidth="1"
       markerHeight="1"
       overflow="visible"
       orient="auto">
      <!-- REF_ARROW_ROUNDED -->
      <g
         transform="scale(0.0092592592)"
         id="g5585">
        <path
           d="M -9,0 L -9,-45 C -9,-51.708 2.808,-56.580 9,-54 L 117,-9 C 120.916,-7.369 126.000,-4.242 126,0 C 126,4.242 120.916,7.369 117,9 L 9,54 C 2.808,56.580 -9,51.708 -9,45 z"
           id="path5583" />
      </g>
    </marker>
    <marker
       id="DefaultArrow5"
       markerUnits="strokeWidth"
       viewBox="0 0 1 1"
       markerWidth="1"
       markerHeight="1"
       overflow="visible"
       orient="auto">
      <!-- REF_ARROW_SPOT -->
      <g
         transform="scale(0.0092592592)"
         id="g5590">
        <path
           d="M -54, 0 C -54,29.807 -29.807,54 0,54 C 29.807,54 54,29.807 54,0 C 54,-29.807 29.807,-54 0,-54 C -29.807,-54 -54,-29.807 -54,0 z"
           id="path5588" />
      </g>
    </marker>
    <marker
       id="DefaultArrow6"
       markerUnits="strokeWidth"
       viewBox="0 0 1 1"
       markerWidth="1"
       markerHeight="1"
       overflow="visible"
       orient="auto">
      <!-- REF_ARROW_DIAMOND -->
      <g
         transform="scale(0.0092592592)"
         id="g5595">
        <path
           d="M -63,0 L 0,63 L 63,0 L 0,-63 z"
           id="path5593" />
      </g>
    </marker>
    <marker
       id="DefaultArrow7"
       markerUnits="strokeWidth"
       viewBox="0 0 1 1"
       markerWidth="1"
       markerHeight="1"
       overflow="visible"
       orient="auto">
      <!-- REF_ARROW_FEATHER -->
      <g
         transform="scale(0.0092592592)"
         id="g5600">
        <path
           d="M 18,-54 L 108,-54 L 63,0 L 108,54 L 18, 54 L -36,0 z"
           id="path5598" />
      </g>
    </marker>
    <marker
       id="DefaultArrow8"
       markerUnits="strokeWidth"
       viewBox="0 0 1 1"
       markerWidth="1"
       markerHeight="1"
       overflow="visible"
       orient="auto">
      <!-- REF_ARROW_FEATHER2 -->
      <g
         transform="scale(0.0092592592)"
         id="g5605">
        <path
           d="M -36,0 L 18,-54 L 54,-54 L 18,-18 L 27,-18 L 63,-54 L 99,-54 L 63,-18 L 72,-18 L 108,-54 L 144,-54 L 90,0 L 144,54 L 108,54 L 72,18 L 63,18 L 99,54 L 63,54 L 27,18 L 18,18 L 54,54 L 18,54 z"
           id="path5603" />
      </g>
    </marker>
    <marker
       id="DefaultArrow9"
       markerUnits="strokeWidth"
       viewBox="0 0 1 1"
       markerWidth="1"
       markerHeight="1"
       overflow="visible"
       orient="auto">
      <!-- REF_ARROW_HOLLOWDIAMOND -->
      <g
         transform="scale(0.0092592592)"
         id="g5610">
        <path
           d="M 0,45 L -45,0 L 0, -45 L 45, 0 z M 0, 63 L-63, 0 L 0, -63 L 63, 0 z"
           id="path5608" />
      </g>
    </marker>
    <filter
       id="StainedFilter">
      <feBlend
         mode="multiply"
         in2="BackgroundImage"
         in="SourceGraphic"
         result="blend"
         id="feBlend5613" />
      <feComposite
         in="blend"
         in2="SourceAlpha"
         operator="in"
         result="comp"
         id="feComposite5615" />
    </filter>
    <filter
       id="BleachFilter">
      <feBlend
         mode="screen"
         in2="BackgroundImage"
         in="SourceGraphic"
         result="blend"
         id="feBlend5618" />
      <feComposite
         in="blend"
         in2="SourceAlpha"
         operator="in"
         result="comp"
         id="feComposite5620" />
    </filter>
    <filter
       id="InvertTransparencyBitmapFilter">
      <feComponentTransfer
         id="feComponentTransfer5629">
        <feFuncR
           type="gamma"
           amplitude="1.055"
           exponent=".416666666"
           offset="-0.055"
           id="feFuncR5623" />
        <feFuncG
           type="gamma"
           amplitude="1.055"
           exponent=".416666666"
           offset="-0.055"
           id="feFuncG5625" />
        <feFuncB
           type="gamma"
           amplitude="1.055"
           exponent=".416666666"
           offset="-0.055"
           id="feFuncB5627" />
      </feComponentTransfer>
      <feComponentTransfer
         id="feComponentTransfer5639">
        <feFuncR
           type="linear"
           slope="-1"
           intercept="1"
           id="feFuncR5631" />
        <feFuncG
           type="linear"
           slope="-1"
           intercept="1"
           id="feFuncG5633" />
        <feFuncB
           type="linear"
           slope="-1"
           intercept="1"
           id="feFuncB5635" />
        <feFuncA
           type="linear"
           slope="1"
           intercept="0"
           id="feFuncA5637" />
      </feComponentTransfer>
      <feComponentTransfer
         id="feComponentTransfer5647">
        <feFuncR
           type="gamma"
           amplitude="1"
           exponent="2.4"
           offset="0"
           id="feFuncR5641" />
        <feFuncG
           type="gamma"
           amplitude="1"
           exponent="2.4"
           offset="0"
           id="feFuncG5643" />
        <feFuncB
           type="gamma"
           amplitude="1"
           exponent="2.4"
           offset="0"
           id="feFuncB5645" />
      </feComponentTransfer>
    </filter>
  </defs>
  <g
     id="Document"
     font-size="16"
     transform="translate(0,17.999)"
     style="font-size:16px;font-family:'Times New Roman';fill:none;stroke:#000000">
    <g
       id="Spread"
       transform="translate(0,-18)">
      <g
         id="Layer 1">
        <g
           id="Group">
          <path
             d="M 18.001,18.001 V 0 H 0 v 18.001 z"
             stroke-miterlimit="79.8403193612775"
             id="path5652"
             inkscape:connector-curvature="0"
             style="fill:#282828;stroke:none;stroke-width:0.75;stroke-linejoin:miter;stroke-miterlimit:79.84031677;marker-start:none;marker-end:none" />
          <g
             id="Group_1">
            <g
               id="Group_2">
              <path
                 d="m 12.925,16.853 1.152,0.008 1.096,0.004 c 0,0 0.258,0.063 0.339,-0.154 C 16.674,11.71 15.214,9.592 14.495,8.887 14.332,8.725 14.208,8.636 14.162,8.607 H 14.15 c -0.263,0.164 -2.827,1.921 -1.555,8.081 0.075,0.215 0.33,0.165 0.33,0.165 z m 0.448,-4.196 0.006,-0.025 c 0.075,-0.337 0.447,-0.564 0.85,-0.517 0.208,0.025 0.384,0.125 0.501,0.255 0.116,0.13 0.17,0.294 0.142,0.469 -0.059,0.347 -0.441,0.591 -0.858,0.542 -0.415,-0.05 -0.701,-0.376 -0.641,-0.724 z"
                 stroke-miterlimit="79.8403193612775"
                 id="path5654"
                 inkscape:connector-curvature="0"
                 style="fill:#b4b4b4;stroke:none;stroke-width:0;stroke-linejoin:miter;stroke-miterlimit:79.84031677;stroke-opacity:0;marker-start:none;marker-end:none" />
              <path
                 d="m 12.759,16.971 c 0.064,0.014 0.122,0.012 0.157,0.008 l 0.02,-0.002 1.139,0.008 1.083,0.004 0.017,0.004 c 0.038,0.004 0.096,0.007 0.162,-0.003 0.114,-0.017 0.247,-0.081 0.31,-0.251 C 16.816,11.706 15.353,9.543 14.599,8.805 14.428,8.636 14.298,8.543 14.243,8.508 L 14.206,8.483 h -0.1 l -0.034,0.023 c -0.153,0.094 -0.88,0.594 -1.407,1.851 -0.523,1.254 -0.846,3.256 -0.201,6.365 0.053,0.16 0.182,0.228 0.295,0.249 z M 12.736,16.672 12.73,16.657 12.676,16.382 c -0.557,-2.9 -0.24,-4.774 0.251,-5.941 0.424,-1.016 0.98,-1.501 1.211,-1.67 L 14.153,8.76 c 0.058,0.043 0.139,0.112 0.241,0.21 0.671,0.66 2.091,2.683 1.034,7.486 l -0.05,0.221 -0.008,0.015 c -0.02,0.041 -0.052,0.053 -0.082,0.056 -0.032,0.006 -0.066,0.002 -0.077,0 l -0.02,-0.005 -1.113,-0.004 -1.168,-0.009 -0.017,0.003 c -0.012,0.002 -0.044,0.005 -0.075,-0.002 -0.029,-0.005 -0.061,-0.017 -0.082,-0.059 z m 1.26,-3.169 c 0.485,0.057 0.943,-0.226 1.012,-0.646 0.037,-0.208 -0.03,-0.408 -0.171,-0.564 -0.136,-0.152 -0.342,-0.27 -0.589,-0.298 -0.469,-0.056 -0.915,0.21 -1.005,0.611 l -0.008,0.034 c -0.072,0.42 0.273,0.805 0.761,0.863 z m -0.492,-0.775 0.004,-0.049 0.007,-0.024 c 0.059,-0.266 0.36,-0.457 0.696,-0.416 0.17,0.019 0.313,0.1 0.409,0.208 0.095,0.103 0.138,0.236 0.115,0.373 -0.048,0.277 -0.356,0.48 -0.703,0.439 -0.322,-0.038 -0.54,-0.275 -0.528,-0.531 z"
                 stroke-miterlimit="79.8403193612775"
                 id="path5656"
                 inkscape:connector-curvature="0"
                 style="fill:#b4b4b4;fill-opacity:0;stroke:none;stroke-width:0;stroke-linejoin:miter;stroke-miterlimit:79.84031677;stroke-opacity:0;marker-start:none;marker-end:none" />
              <path
                 d="m 14.084,16.809 1.08,0.027 c 0,0 0.286,0.059 0.376,-0.154 1.58,-6.073 -1.062,-7.867 -1.35,-8.032 z"
                 stroke-miterlimit="79.8403193612775"
                 id="path5658"
                 inkscape:connector-curvature="0"
                 style="fill:#b4b4b4;stroke:none;stroke-width:0;stroke-linejoin:miter;stroke-miterlimit:79.84031677;stroke-opacity:0;marker-start:none;marker-end:none" />
              <path
                 d="m 13.944,16.928 1.206,0.03 c 0.035,0.006 0.109,0.015 0.19,0.002 0.116,-0.016 0.262,-0.074 0.331,-0.238 l 0.003,-0.011 c 0.796,-3.054 0.531,-5.046 0.02,-6.301 -0.509,-1.257 -1.263,-1.767 -1.43,-1.864 l -0.21,-0.121 z m 0.279,-0.239 0.103,-7.787 0.013,0.012 c 0.28,0.231 0.744,0.716 1.095,1.578 0.474,1.165 0.739,3.024 0.04,5.884 l -0.067,0.27 -0.006,0.012 c -0.025,0.039 -0.061,0.054 -0.104,0.06 -0.055,0.007 -0.107,-0.003 -0.099,-0.003 l -0.014,-0.003 z"
                 stroke-miterlimit="79.8403193612775"
                 id="path5660"
                 inkscape:connector-curvature="0"
                 style="fill:#b4b4b4;fill-opacity:0;stroke:none;stroke-width:0;stroke-linejoin:miter;stroke-miterlimit:79.84031677;stroke-opacity:0;marker-start:none;marker-end:none" />
              <path
                 d="m 12.942,16.851 1.147,0.013 1.099,0.003 c 0,0 0.257,0.061 0.338,-0.155 1.431,-6.153 -1.106,-7.947 -1.352,-8.104 h -0.01 c -0.263,0.163 -2.827,1.924 -1.555,8.083 0.076,0.217 0.333,0.16 0.333,0.16 z"
                 stroke-miterlimit="79.8403193612775"
                 id="path5662"
                 inkscape:connector-curvature="0"
                 style="fill:#b4b4b4;fill-rule:evenodd;stroke:none;stroke-width:0;stroke-linejoin:miter;stroke-miterlimit:79.84031677;stroke-opacity:0;marker-start:none;marker-end:none" />
              <path
                 d="m 12.785,16.943 c 0.07,0.012 0.134,0.007 0.165,10e-4 l 1.139,0.014 1.089,0.002 c 0.03,0.006 0.094,0.014 0.168,0.002 0.104,-0.015 0.224,-0.075 0.281,-0.228 0.719,-3.091 0.446,-5.096 -0.049,-6.353 C 15.083,9.125 14.373,8.62 14.235,8.533 L 14.208,8.516 14.133,8.514 14.104,8.532 c -0.147,0.091 -0.867,0.586 -1.39,1.836 -0.523,1.25 -0.846,3.248 -0.206,6.35 0.054,0.146 0.171,0.207 0.277,0.225 z m -0.065,-0.255 -0.01,-0.02 -0.054,-0.277 c -1.058,-5.518 1.042,-7.337 1.5,-7.661 l 0.011,-0.009 0.012,0.008 c 0.209,0.153 0.782,0.649 1.2,1.713 0.465,1.18 0.739,3.065 0.107,5.968 l -0.062,0.278 -0.01,0.019 c -0.026,0.051 -0.068,0.068 -0.105,0.073 -0.05,0.007 -0.098,-0.004 -0.093,-0.003 l -0.012,-0.002 -1.115,-0.003 -1.159,-0.014 -0.014,0.003 c 0.006,-10e-4 -0.041,0.008 -0.092,0 -0.038,-0.007 -0.078,-0.022 -0.104,-0.073 z"
                 stroke-miterlimit="79.8403193612775"
                 id="path5664"
                 inkscape:connector-curvature="0"
                 style="fill:#b4b4b4;fill-opacity:0;fill-rule:evenodd;stroke:none;stroke-width:0;stroke-linejoin:miter;stroke-miterlimit:79.84031677;stroke-opacity:0;marker-start:none;marker-end:none" />
              <path
                 d="m 14.008,13.376 c 0.412,0.054 0.797,-0.182 0.864,-0.525 0.069,-0.343 -0.209,-0.668 -0.618,-0.729 -0.411,-0.06 -0.804,0.168 -0.88,0.51 l -0.004,0.027 c -0.059,0.346 0.226,0.665 0.638,0.717 z"
                 stroke-miterlimit="79.8403193612775"
                 id="path5666"
                 inkscape:connector-curvature="0"
                 style="fill:#b4b4b4;fill-rule:evenodd;stroke:none;stroke-width:0;stroke-linecap:round;stroke-linejoin:round;stroke-miterlimit:79.84031677;stroke-opacity:0;marker-start:none;marker-end:none" />
              <path
                 d="m 13.994,13.453 c 0.457,0.059 0.889,-0.2 0.964,-0.588 0.078,-0.389 -0.237,-0.753 -0.691,-0.819 -0.452,-0.065 -0.891,0.183 -0.977,0.571 l -0.003,0.016 -0.003,0.016 c -0.067,0.391 0.257,0.746 0.71,0.804 z m -0.539,-0.785 0.005,-0.02 c 0.067,-0.298 0.41,-0.503 0.778,-0.449 0.369,0.053 0.607,0.342 0.549,0.639 -0.057,0.299 -0.397,0.511 -0.765,0.462 -0.37,-0.047 -0.616,-0.331 -0.567,-0.632 z"
                 stroke-miterlimit="79.8403193612775"
                 id="path5668"
                 inkscape:connector-curvature="0"
                 style="fill:#b4b4b4;fill-opacity:0;fill-rule:evenodd;stroke:none;stroke-width:0;stroke-linecap:round;stroke-linejoin:round;stroke-miterlimit:79.84031677;stroke-opacity:0;marker-start:none;marker-end:none" />
            </g>
            <path
               d="m 14.239,12.631 c -0.406,-0.079 -0.8,0.186 -0.88,0.592 -0.079,0.406 0.186,0.8 0.592,0.88 0.406,0.079 0.801,-0.186 0.88,-0.592 0.079,-0.406 -0.186,-0.801 -0.592,-0.88 z"
               stroke-miterlimit="79.8403193612775"
               id="path5671"
               inkscape:connector-curvature="0"
               style="fill:#282828;stroke:none;stroke-width:0.44299999;stroke-linejoin:miter;stroke-miterlimit:79.84031677;marker-start:none;marker-end:none" />
            <path
               d="M 14.003,13.275 4.893,4.165"
               stroke-miterlimit="79.8403193612775"
               id="path5673"
               inkscape:connector-curvature="0"
               style="fill:none;stroke:#b4b4b4;stroke-width:0.75;stroke-linecap:round;stroke-linejoin:round;stroke-miterlimit:79.84031677" />
            <g
               id="Group_3"
               stroke-miterlimit="79.8403193612775"
               style="stroke-width:0.75;stroke-linejoin:miter;stroke-miterlimit:79.84031677">
              <path
                 d="m 2.964,5.846 c 1.021,1.021 2.679,1.021 3.7,0 1.021,-1.021 1.021,-2.679 0,-3.7 -1.021,-1.021 -2.679,-1.021 -3.7,0 -1.021,1.021 -1.021,2.679 0,3.7 z"
                 id="path5675"
                 inkscape:connector-curvature="0"
                 style="stroke:#b4b4b4;marker-start:none;marker-end:none" />
              <path
                 d="M 4.458,4.656 C 4.822,4.851 5.279,4.715 5.475,4.351 5.671,3.987 5.534,3.531 5.17,3.336 4.806,3.141 4.349,3.277 4.153,3.641 3.957,4.005 4.094,4.461 4.458,4.656 Z"
                 id="path5677"
                 inkscape:connector-curvature="0"
                 style="fill:#b4b4b4;stroke:none;marker-start:none;marker-end:none" />
            </g>
          </g>
        </g>
      </g>
    </g>
  </g>
</svg>
