<?xml version="1.0" encoding="UTF-8" standalone="no"?>
<!--Generator: Xara Designer (www.xara.com), SVG filter version: 5.0.0.2-->

<svg
   xmlns:dc="http://purl.org/dc/elements/1.1/"
   xmlns:cc="http://creativecommons.org/ns#"
   xmlns:rdf="http://www.w3.org/1999/02/22-rdf-syntax-ns#"
   xmlns:svg="http://www.w3.org/2000/svg"
   xmlns="http://www.w3.org/2000/svg"
   xmlns:sodipodi="http://sodipodi.sourceforge.net/DTD/sodipodi-0.dtd"
   xmlns:inkscape="http://www.inkscape.org/namespaces/inkscape"
   stroke-width="0.501"
   stroke-linejoin="bevel"
   fill-rule="evenodd"
   version="1.1"
   overflow="visible"
   width="18pt"
   height="18pt"
   viewBox="0 0 18 18"
   id="svg5979"
   sodipodi:docname="GZgrey_MUI1.svg"
   inkscape:version="0.92.5 (2060ec1f9f, 2020-04-08)">
  <metadata
     id="metadata5983">
    <rdf:RDF>
      <cc:Work
         rdf:about="">
        <dc:format>image/svg+xml</dc:format>
        <dc:type
           rdf:resource="http://purl.org/dc/dcmitype/StillImage" />
        <dc:title></dc:title>
      </cc:Work>
    </rdf:RDF>
  </metadata>
  <sodipodi:namedview
     pagecolor="#ffffff"
     bordercolor="#666666"
     borderopacity="1"
     objecttolerance="10"
     gridtolerance="10"
     guidetolerance="10"
     inkscape:pageopacity="0"
     inkscape:pageshadow="2"
     inkscape:window-width="1920"
     inkscape:window-height="1056"
     id="namedview5981"
     showgrid="false"
     inkscape:zoom="36.166667"
     inkscape:cx="12"
     inkscape:cy="12"
     inkscape:window-x="0"
     inkscape:window-y="0"
     inkscape:window-maximized="1"
     inkscape:current-layer="svg5979" />
  <defs
     id="defs5946">
    <marker
       id="DefaultArrow2"
       markerUnits="strokeWidth"
       viewBox="0 0 1 1"
       markerWidth="1"
       markerHeight="1"
       overflow="visible"
       orient="auto">
      <!-- REF_ARROW_STRAIGHT (-2) -->
      <g
         transform="scale(0.0092592592)"
         id="g5871">
        <!-- 1/108 -->
        <path
           d="M -9 54 L -9 -54 L 117 0 z"
           id="path5869" />
      </g>
    </marker>
    <marker
       id="DefaultArrow3"
       markerUnits="strokeWidth"
       viewBox="0 0 1 1"
       markerWidth="1"
       markerHeight="1"
       overflow="visible"
       orient="auto">
      <!-- REF_ARROW_ANGLED -->
      <g
         transform="scale(0.0092592592)"
         id="g5876">
        <path
           d="M -27 54 L -9 0 L -27 -54 L 135 0 z"
           id="path5874" />
      </g>
    </marker>
    <marker
       id="DefaultArrow4"
       markerUnits="strokeWidth"
       viewBox="0 0 1 1"
       markerWidth="1"
       markerHeight="1"
       overflow="visible"
       orient="auto">
      <!-- REF_ARROW_ROUNDED -->
      <g
         transform="scale(0.0092592592)"
         id="g5881">
        <path
           d="M -9,0 L -9,-45 C -9,-51.708 2.808,-56.580 9,-54 L 117,-9 C 120.916,-7.369 126.000,-4.242 126,0 C 126,4.242 120.916,7.369 117,9 L 9,54 C 2.808,56.580 -9,51.708 -9,45 z"
           id="path5879" />
      </g>
    </marker>
    <marker
       id="DefaultArrow5"
       markerUnits="strokeWidth"
       viewBox="0 0 1 1"
       markerWidth="1"
       markerHeight="1"
       overflow="visible"
       orient="auto">
      <!-- REF_ARROW_SPOT -->
      <g
         transform="scale(0.0092592592)"
         id="g5886">
        <path
           d="M -54, 0 C -54,29.807 -29.807,54 0,54 C 29.807,54 54,29.807 54,0 C 54,-29.807 29.807,-54 0,-54 C -29.807,-54 -54,-29.807 -54,0 z"
           id="path5884" />
      </g>
    </marker>
    <marker
       id="DefaultArrow6"
       markerUnits="strokeWidth"
       viewBox="0 0 1 1"
       markerWidth="1"
       markerHeight="1"
       overflow="visible"
       orient="auto">
      <!-- REF_ARROW_DIAMOND -->
      <g
         transform="scale(0.0092592592)"
         id="g5891">
        <path
           d="M -63,0 L 0,63 L 63,0 L 0,-63 z"
           id="path5889" />
      </g>
    </marker>
    <marker
       id="DefaultArrow7"
       markerUnits="strokeWidth"
       viewBox="0 0 1 1"
       markerWidth="1"
       markerHeight="1"
       overflow="visible"
       orient="auto">
      <!-- REF_ARROW_FEATHER -->
      <g
         transform="scale(0.0092592592)"
         id="g5896">
        <path
           d="M 18,-54 L 108,-54 L 63,0 L 108,54 L 18, 54 L -36,0 z"
           id="path5894" />
      </g>
    </marker>
    <marker
       id="DefaultArrow8"
       markerUnits="strokeWidth"
       viewBox="0 0 1 1"
       markerWidth="1"
       markerHeight="1"
       overflow="visible"
       orient="auto">
      <!-- REF_ARROW_FEATHER2 -->
      <g
         transform="scale(0.0092592592)"
         id="g5901">
        <path
           d="M -36,0 L 18,-54 L 54,-54 L 18,-18 L 27,-18 L 63,-54 L 99,-54 L 63,-18 L 72,-18 L 108,-54 L 144,-54 L 90,0 L 144,54 L 108,54 L 72,18 L 63,18 L 99,54 L 63,54 L 27,18 L 18,18 L 54,54 L 18,54 z"
           id="path5899" />
      </g>
    </marker>
    <marker
       id="DefaultArrow9"
       markerUnits="strokeWidth"
       viewBox="0 0 1 1"
       markerWidth="1"
       markerHeight="1"
       overflow="visible"
       orient="auto">
      <!-- REF_ARROW_HOLLOWDIAMOND -->
      <g
         transform="scale(0.0092592592)"
         id="g5906">
        <path
           d="M 0,45 L -45,0 L 0, -45 L 45, 0 z M 0, 63 L-63, 0 L 0, -63 L 63, 0 z"
           id="path5904" />
      </g>
    </marker>
    <filter
       id="StainedFilter">
      <feBlend
         mode="multiply"
         in2="BackgroundImage"
         in="SourceGraphic"
         result="blend"
         id="feBlend5909" />
      <feComposite
         in="blend"
         in2="SourceAlpha"
         operator="in"
         result="comp"
         id="feComposite5911" />
    </filter>
    <filter
       id="BleachFilter">
      <feBlend
         mode="screen"
         in2="BackgroundImage"
         in="SourceGraphic"
         result="blend"
         id="feBlend5914" />
      <feComposite
         in="blend"
         in2="SourceAlpha"
         operator="in"
         result="comp"
         id="feComposite5916" />
    </filter>
    <filter
       id="InvertTransparencyBitmapFilter">
      <feComponentTransfer
         id="feComponentTransfer5925">
        <feFuncR
           type="gamma"
           amplitude="1.055"
           exponent=".416666666"
           offset="-0.055"
           id="feFuncR5919" />
        <feFuncG
           type="gamma"
           amplitude="1.055"
           exponent=".416666666"
           offset="-0.055"
           id="feFuncG5921" />
        <feFuncB
           type="gamma"
           amplitude="1.055"
           exponent=".416666666"
           offset="-0.055"
           id="feFuncB5923" />
      </feComponentTransfer>
      <feComponentTransfer
         id="feComponentTransfer5935">
        <feFuncR
           type="linear"
           slope="-1"
           intercept="1"
           id="feFuncR5927" />
        <feFuncG
           type="linear"
           slope="-1"
           intercept="1"
           id="feFuncG5929" />
        <feFuncB
           type="linear"
           slope="-1"
           intercept="1"
           id="feFuncB5931" />
        <feFuncA
           type="linear"
           slope="1"
           intercept="0"
           id="feFuncA5933" />
      </feComponentTransfer>
      <feComponentTransfer
         id="feComponentTransfer5943">
        <feFuncR
           type="gamma"
           amplitude="1"
           exponent="2.4"
           offset="0"
           id="feFuncR5937" />
        <feFuncG
           type="gamma"
           amplitude="1"
           exponent="2.4"
           offset="0"
           id="feFuncG5939" />
        <feFuncB
           type="gamma"
           amplitude="1"
           exponent="2.4"
           offset="0"
           id="feFuncB5941" />
      </feComponentTransfer>
    </filter>
  </defs>
  <g
     id="Document"
     font-size="16"
     transform="translate(0,17.999)"
     style="font-size:16px;font-family:'Times New Roman';fill:none;stroke:#000000">
    <g
       id="Spread"
       transform="translate(0,-18)">
      <g
         id="Layer 1">
        <g
           id="Group">
          <path
             d="M 18.001,18.001 V 0 H 0 v 18.001 z"
             stroke-miterlimit="79.8403193612775"
             id="path5948"
             inkscape:connector-curvature="0"
             style="fill:#898989;stroke:none;stroke-width:0.75;stroke-linejoin:miter;stroke-miterlimit:79.84031677;marker-start:none;marker-end:none" />
          <g
             id="Group_1">
            <g
               id="Group_2">
              <path
                 d="m 7.784,13.143 1.152,0.008 1.096,0.004 c 0,0 0.258,0.063 0.339,-0.154 C 11.533,8 10.073,5.882 9.354,5.177 9.191,5.015 9.067,4.926 9.021,4.897 H 9.009 c -0.263,0.164 -2.827,1.921 -1.555,8.081 0.075,0.215 0.33,0.165 0.33,0.165 z M 8.232,8.947 8.238,8.922 C 8.313,8.585 8.685,8.358 9.088,8.405 9.296,8.43 9.472,8.53 9.589,8.66 9.705,8.79 9.759,8.954 9.731,9.129 9.672,9.476 9.29,9.72 8.873,9.671 8.458,9.621 8.172,9.295 8.232,8.947 Z"
                 stroke-miterlimit="79.8403193612775"
                 id="path5950"
                 inkscape:connector-curvature="0"
                 style="fill:#b4b4b4;stroke:none;stroke-width:0;stroke-linejoin:miter;stroke-miterlimit:79.84031677;stroke-opacity:0;marker-start:none;marker-end:none" />
              <path
                 d="m 7.618,13.261 c 0.064,0.014 0.122,0.012 0.157,0.008 l 0.02,-0.002 1.139,0.008 1.083,0.004 0.017,0.004 c 0.038,0.004 0.096,0.007 0.162,-0.003 0.114,-0.017 0.247,-0.081 0.31,-0.251 C 11.675,7.996 10.212,5.833 9.458,5.095 9.287,4.926 9.157,4.833 9.102,4.798 L 9.065,4.773 h -0.1 L 8.931,4.796 C 8.778,4.89 8.051,5.39 7.524,6.647 7.001,7.901 6.678,9.903 7.323,13.012 c 0.053,0.16 0.182,0.228 0.295,0.249 z M 7.595,12.962 7.589,12.947 7.535,12.672 C 6.978,9.772 7.295,7.898 7.786,6.731 8.21,5.715 8.766,5.23 8.997,5.061 L 9.012,5.05 c 0.058,0.043 0.139,0.112 0.241,0.21 0.671,0.66 2.091,2.683 1.034,7.486 l -0.05,0.221 -0.008,0.015 c -0.02,0.041 -0.052,0.053 -0.082,0.056 -0.032,0.006 -0.066,0.002 -0.077,0 L 10.05,13.033 8.937,13.029 7.769,13.02 7.752,13.023 C 7.74,13.025 7.708,13.028 7.677,13.021 7.648,13.016 7.616,13.004 7.595,12.962 Z M 8.855,9.793 C 9.34,9.85 9.798,9.567 9.867,9.147 9.904,8.939 9.837,8.739 9.696,8.583 9.56,8.431 9.354,8.313 9.107,8.285 8.638,8.229 8.192,8.495 8.102,8.896 L 8.094,8.93 C 8.022,9.35 8.367,9.735 8.855,9.793 Z M 8.363,9.018 8.367,8.969 8.374,8.945 C 8.433,8.679 8.734,8.488 9.07,8.529 9.24,8.548 9.383,8.629 9.479,8.737 9.574,8.84 9.617,8.973 9.594,9.11 9.546,9.387 9.238,9.59 8.891,9.549 8.569,9.511 8.351,9.274 8.363,9.018 Z"
                 stroke-miterlimit="79.8403193612775"
                 id="path5952"
                 inkscape:connector-curvature="0"
                 style="fill:#b4b4b4;fill-opacity:0;stroke:none;stroke-width:0;stroke-linejoin:miter;stroke-miterlimit:79.84031677;stroke-opacity:0;marker-start:none;marker-end:none" />
              <path
                 d="m 8.943,13.099 1.08,0.027 c 0,0 0.286,0.059 0.376,-0.154 C 11.979,6.899 9.337,5.105 9.049,4.94 Z"
                 stroke-miterlimit="79.8403193612775"
                 id="path5954"
                 inkscape:connector-curvature="0"
                 style="fill:#b4b4b4;stroke:none;stroke-width:0;stroke-linejoin:miter;stroke-miterlimit:79.84031677;stroke-opacity:0;marker-start:none;marker-end:none" />
              <path
                 d="m 8.803,13.218 1.206,0.03 c 0.035,0.006 0.109,0.015 0.19,0.002 0.116,-0.016 0.262,-0.074 0.331,-0.238 l 0.003,-0.011 C 11.329,9.947 11.064,7.955 10.553,6.7 10.044,5.443 9.29,4.933 9.123,4.836 L 8.913,4.715 Z M 9.082,12.979 9.185,5.192 9.198,5.204 c 0.28,0.231 0.744,0.716 1.095,1.578 0.474,1.165 0.739,3.024 0.04,5.884 l -0.067,0.27 -0.006,0.012 c -0.025,0.039 -0.061,0.054 -0.104,0.06 -0.055,0.007 -0.107,-0.003 -0.099,-0.003 l -0.014,-0.003 z"
                 stroke-miterlimit="79.8403193612775"
                 id="path5956"
                 inkscape:connector-curvature="0"
                 style="fill:#b4b4b4;fill-opacity:0;stroke:none;stroke-width:0;stroke-linejoin:miter;stroke-miterlimit:79.84031677;stroke-opacity:0;marker-start:none;marker-end:none" />
              <path
                 d="m 7.801,13.141 1.147,0.013 1.099,0.003 c 0,0 0.257,0.061 0.338,-0.155 C 11.816,6.849 9.279,5.055 9.033,4.898 H 9.023 C 8.76,5.061 6.196,6.822 7.468,12.981 c 0.076,0.217 0.333,0.16 0.333,0.16 z"
                 stroke-miterlimit="79.8403193612775"
                 id="path5958"
                 inkscape:connector-curvature="0"
                 style="fill:#b4b4b4;fill-rule:evenodd;stroke:none;stroke-width:0;stroke-linejoin:miter;stroke-miterlimit:79.84031677;stroke-opacity:0;marker-start:none;marker-end:none" />
              <path
                 d="m 7.644,13.233 c 0.07,0.012 0.134,0.007 0.165,10e-4 l 1.139,0.014 1.089,0.002 c 0.03,0.006 0.094,0.014 0.168,0.002 0.104,-0.015 0.224,-0.075 0.281,-0.228 C 11.205,9.933 10.932,7.928 10.437,6.671 9.942,5.415 9.232,4.91 9.094,4.823 L 9.067,4.806 8.992,4.804 8.963,4.822 C 8.816,4.913 8.096,5.408 7.573,6.658 7.05,7.908 6.727,9.906 7.367,13.008 c 0.054,0.146 0.171,0.207 0.277,0.225 z M 7.579,12.978 7.569,12.958 7.515,12.681 C 6.457,7.163 8.557,5.344 9.015,5.02 L 9.026,5.011 9.038,5.019 c 0.209,0.153 0.782,0.649 1.2,1.713 0.465,1.18 0.739,3.065 0.107,5.968 l -0.062,0.278 -0.01,0.019 c -0.026,0.051 -0.068,0.068 -0.105,0.073 -0.05,0.007 -0.098,-0.004 -0.093,-0.003 L 10.063,13.065 8.948,13.062 7.789,13.048 7.775,13.051 c 0.006,-10e-4 -0.041,0.008 -0.092,0 C 7.645,13.044 7.605,13.029 7.579,12.978 Z"
                 stroke-miterlimit="79.8403193612775"
                 id="path5960"
                 inkscape:connector-curvature="0"
                 style="fill:#b4b4b4;fill-opacity:0;fill-rule:evenodd;stroke:none;stroke-width:0;stroke-linejoin:miter;stroke-miterlimit:79.84031677;stroke-opacity:0;marker-start:none;marker-end:none" />
              <path
                 d="M 8.867,9.666 C 9.279,9.72 9.664,9.484 9.731,9.141 9.8,8.798 9.522,8.473 9.113,8.412 8.702,8.352 8.309,8.58 8.233,8.922 L 8.229,8.949 C 8.17,9.295 8.455,9.614 8.867,9.666 Z"
                 stroke-miterlimit="79.8403193612775"
                 id="path5962"
                 inkscape:connector-curvature="0"
                 style="fill:#b4b4b4;fill-rule:evenodd;stroke:none;stroke-width:0;stroke-linecap:round;stroke-linejoin:round;stroke-miterlimit:79.84031677;stroke-opacity:0;marker-start:none;marker-end:none" />
              <path
                 d="M 8.853,9.743 C 9.31,9.802 9.742,9.543 9.817,9.155 9.895,8.766 9.58,8.402 9.126,8.336 8.674,8.271 8.235,8.519 8.149,8.907 L 8.146,8.923 8.143,8.939 C 8.076,9.33 8.4,9.685 8.853,9.743 Z M 8.314,8.958 8.319,8.938 C 8.386,8.64 8.729,8.435 9.097,8.489 9.466,8.542 9.704,8.831 9.646,9.128 9.589,9.427 9.249,9.639 8.881,9.59 8.511,9.543 8.265,9.259 8.314,8.958 Z"
                 stroke-miterlimit="79.8403193612775"
                 id="path5964"
                 inkscape:connector-curvature="0"
                 style="fill:#b4b4b4;fill-opacity:0;fill-rule:evenodd;stroke:none;stroke-width:0;stroke-linecap:round;stroke-linejoin:round;stroke-miterlimit:79.84031677;stroke-opacity:0;marker-start:none;marker-end:none" />
            </g>
            <path
               d="M 9.144,8.265 C 8.738,8.186 8.343,8.451 8.264,8.857 8.185,9.263 8.45,9.658 8.856,9.737 9.262,9.816 9.657,9.551 9.736,9.145 9.815,8.739 9.55,8.344 9.144,8.265 Z"
               stroke-miterlimit="79.8403193612775"
               id="path5967"
               inkscape:connector-curvature="0"
               style="fill:#898989;stroke:none;stroke-width:0.44299999;stroke-linejoin:miter;stroke-miterlimit:79.84031677;marker-start:none;marker-end:none" />
            <g
               id="Group_3"
               stroke-miterlimit="79.8403193612775"
               style="stroke:#b4b4b4;stroke-width:0.75;stroke-linecap:round;stroke-linejoin:round;stroke-miterlimit:79.84031677">
              <path
                 d="M 5.561,16.587 C 2.861,15.388 1.122,12.913 0.736,10.184 L 8.922,9.041 3.839,2.523 C 6.167,0.713 9.392,0.21 12.272,1.49 c 4.165,1.852 6.045,6.738 4.193,10.904 -1.852,4.166 -6.737,6.045 -10.904,4.193 z"
                 id="path5969"
                 inkscape:connector-curvature="0"
                 style="marker-start:none;marker-end:none" />
              <path
                 d="M 6.771,14.606 C 4.681,13.801 3.302,11.941 3.009,9.868 L 8.922,9.041 5.252,4.334 c 1.597,-1.24 3.786,-1.64 5.809,-0.86 3.071,1.183 4.605,4.639 3.421,7.71 -1.184,3.072 -4.639,4.605 -7.711,3.422 z"
                 id="path5971"
                 inkscape:connector-curvature="0"
                 style="marker-start:none;marker-end:none" />
            </g>
          </g>
        </g>
      </g>
    </g>
  </g>
</svg>
