<?xml version="1.0" encoding="UTF-8" standalone="no"?>
<!--Generator: Xara Designer (www.xara.com), SVG filter version: 5.0.0.2-->

<svg
   stroke-width="0.501"
   stroke-linejoin="bevel"
   fill-rule="evenodd"
   version="1.1"
   overflow="visible"
   width="18pt"
   height="18pt"
   viewBox="0 0 18 18"
   id="svg6587"
   sodipodi:docname="ODManagergrey_Properties_MUI1.svg"
   inkscape:version="1.1.1 (1:1.1+202109281949+c3084ef5ed)"
   xmlns:inkscape="http://www.inkscape.org/namespaces/inkscape"
   xmlns:sodipodi="http://sodipodi.sourceforge.net/DTD/sodipodi-0.dtd"
   xmlns="http://www.w3.org/2000/svg"
   xmlns:svg="http://www.w3.org/2000/svg"
   xmlns:rdf="http://www.w3.org/1999/02/22-rdf-syntax-ns#"
   xmlns:cc="http://creativecommons.org/ns#"
   xmlns:dc="http://purl.org/dc/elements/1.1/">
  <metadata
     id="metadata6591">
    <rdf:RDF>
      <cc:Work
         rdf:about="">
        <dc:format>image/svg+xml</dc:format>
        <dc:type
           rdf:resource="http://purl.org/dc/dcmitype/StillImage" />
      </cc:Work>
    </rdf:RDF>
  </metadata>
  <sodipodi:namedview
     pagecolor="#ffffff"
     bordercolor="#666666"
     borderopacity="1"
     objecttolerance="10"
     gridtolerance="10"
     guidetolerance="10"
     inkscape:pageopacity="0"
     inkscape:pageshadow="2"
     inkscape:window-width="1920"
     inkscape:window-height="1055"
     id="namedview6589"
     showgrid="false"
     inkscape:zoom="36.166667"
     inkscape:cx="12.02765"
     inkscape:cy="12.02765"
     inkscape:window-x="0"
     inkscape:window-y="0"
     inkscape:window-maximized="1"
     inkscape:current-layer="svg6587"
     inkscape:pagecheckerboard="0"
     inkscape:document-units="pt" />
  <defs
     id="defs6543" />
  <path
     d="m 25.057,9.416999 h 24 v -24 h -24 v 24"
     id="path6545"
     inkscape:connector-curvature="0"
     style="font-size:16px;font-family:'Times New Roman';fill:#000000;fill-opacity:0;stroke:none" />
  <path
     d="m 33.471,-1.770001 c 0,2.241 1.88,4.06 4.196,4.06 2.316,0 4.196,-1.819 4.196,-4.06 0,-2.241 -1.88,-4.06 -4.196,-4.06 -2.316,0 -4.196,1.819 -4.196,4.06 z"
     stroke-miterlimit="79.8403193612775"
     id="path6547"
     inkscape:connector-curvature="0"
     style="font-size:16px;font-family:'Times New Roman';fill:#800000;fill-opacity:0;fill-rule:evenodd;stroke:none;stroke-width:0;stroke-linejoin:round;stroke-miterlimit:79.8403;stroke-opacity:0.85098;marker-start:none;marker-end:none" />
  <path
     d="m 18.001,-0.001001 v 18.001 H 0 v -18.001 z"
     stroke-miterlimit="79.8403193612775"
     id="path6549"
     inkscape:connector-curvature="0"
     style="font-size:16px;font-family:'Times New Roman';fill:#898989;stroke:none;stroke-width:0.75;stroke-linejoin:miter;stroke-miterlimit:79.8403;marker-start:none;marker-end:none" />
  <g
     id="Group_2"
     stroke-miterlimit="46.9483568075117"
     style="font-size:16px;font-family:'Times New Roman';fill:none;stroke:#b4b4b4;stroke-width:0.852;stroke-linejoin:miter;stroke-miterlimit:46.9484"
     transform="translate(0,-0.001001)">
    <path
       d="M 7.258,2.632 7.254,6.04 10.662,6.044 10.666,2.636 Z"
       id="path6551"
       inkscape:connector-curvature="0"
       style="fill:#898989;fill-opacity:0.15000001;marker-start:none;marker-end:none" />
    <path
       d="M 8.94,3.912 C 9.175,3.902 9.376,4.083 9.386,4.318 9.396,4.553 9.215,4.754 8.979,4.764 8.744,4.774 8.543,4.593 8.533,4.358 8.523,4.122 8.704,3.922 8.94,3.912 Z"
       id="path6553"
       inkscape:connector-curvature="0"
       style="fill:#898989;fill-opacity:0.15000001;marker-start:none;marker-end:none" />
  </g>
  <g
     id="Group_3"
     stroke-miterlimit="46.9483568075117"
     style="font-size:16px;font-family:'Times New Roman';fill:none;stroke:#b4b4b4;stroke-width:0.852;stroke-linejoin:miter;stroke-miterlimit:46.9484"
     transform="translate(0,-0.001001)">
    <path
       d="M 1.174,12.032 1.17,15.44 4.578,15.444 4.582,12.036 Z"
       id="path6556"
       inkscape:connector-curvature="0"
       style="fill:#898989;fill-opacity:0.15000001;marker-start:none;marker-end:none" />
    <path
       d="m 2.856,13.311 c 0.235,-0.01 0.436,0.171 0.446,0.406 0.01,0.236 -0.171,0.436 -0.406,0.446 C 2.66,14.173 2.46,13.992 2.45,13.757 2.44,13.522 2.621,13.321 2.856,13.311 Z"
       id="path6558"
       inkscape:connector-curvature="0"
       style="fill:#898989;fill-opacity:0.15000001;marker-start:none;marker-end:none" />
  </g>
  <g
     id="Group_4"
     stroke-miterlimit="46.9483568075117"
     style="font-size:16px;font-family:'Times New Roman';fill:none;stroke:#b4b4b4;stroke-width:0.852;stroke-linejoin:miter;stroke-miterlimit:46.9484"
     transform="translate(0,-0.001001)">
    <path
       d="m 13.424,12.048 -0.004,3.408 3.408,0.004 0.004,-3.408 z"
       id="path6561"
       inkscape:connector-curvature="0"
       style="fill:#898989;fill-opacity:0.15000001;marker-start:none;marker-end:none" />
    <path
       d="m 15.105,13.327 c 0.235,-0.01 0.436,0.171 0.446,0.406 0.01,0.235 -0.171,0.436 -0.406,0.446 -0.235,0.01 -0.436,-0.171 -0.446,-0.406 -0.01,-0.235 0.171,-0.436 0.406,-0.446 z"
       id="path6563"
       inkscape:connector-curvature="0"
       style="fill:#898989;fill-opacity:0.15000001;marker-start:none;marker-end:none" />
  </g>
  <path
     d="m 11.608,8.962999 1.769,3.056 -0.002,1.491 -4.387,0.006 -4.371,0.007 0.002,-1.537 1.734,-3.015 1.689,-2.937 1.87,0.001"
     id="path6566"
     inkscape:connector-curvature="0"
     style="font-size:16px;font-family:'Times New Roman';fill:#898989;fill-opacity:0.15000001;stroke:#b4b4b4;stroke-width:0.852;stroke-linecap:round;stroke-linejoin:round;stroke-miterlimit:79.8403" />
  <g
     id="Group_6"
     stroke-miterlimit="79.8403193612775"
     style="font-size:16px;font-family:'Times New Roman';fill:none;stroke:#b4b4b4;stroke-width:0.774;stroke-linecap:round;stroke-linejoin:round;stroke-miterlimit:79.8403"
     transform="translate(0,-0.001001)">
    <path
       d="M 9.135,12.212 10.264,8.798"
       id="path6569"
       inkscape:connector-curvature="0"
       style="fill:#898989;fill-opacity:0.15000001" />
    <path
       d="m 9.128,12.208 2.98,-2.017"
       id="path6571"
       inkscape:connector-curvature="0"
       style="fill:#898989;fill-opacity:0.15000001" />
    <path
       d="m 10.3,8.751 0.502,1.156"
       id="path6573"
       inkscape:connector-curvature="0"
       style="fill:#898989;fill-opacity:0.15000001" />
    <path
       d="M 12.128,10.133 10.877,9.962"
       id="path6575"
       inkscape:connector-curvature="0"
       style="fill:#898989;fill-opacity:0.15000001" />
  </g>
  <path
     d="m 10.538,8.584999 2.655,-3.512 1.74,1.316 -2.656,3.512 z"
     stroke-miterlimit="79.8403193612775"
     id="path6578"
     inkscape:connector-curvature="0"
     style="font-size:16px;font-family:'Times New Roman';fill:#898989;fill-opacity:0.15000001;stroke:#b4b4b4;stroke-width:0.943;stroke-linejoin:miter;stroke-miterlimit:79.8403;marker-start:none;marker-end:none" />
  <path
     d="m 14.331,3.569999 0.605,-0.801 c 0.153,-0.202 0.443,-0.242 0.645,-0.09 l 1.005,0.762 c 0.202,0.152 0.243,0.442 0.088,0.645 l -0.605,0.801 z"
     stroke-miterlimit="79.8403193612775"
     id="path6580"
     inkscape:connector-curvature="0"
     style="font-size:16px;font-family:'Times New Roman';fill:#898989;fill-opacity:0.15000001;stroke:#b4b4b4;stroke-width:0.943;stroke-linejoin:miter;stroke-miterlimit:79.8403;marker-start:none;marker-end:none" />
</svg>
