<?xml version="1.0" standalone="no"?>
<!DOCTYPE svg PUBLIC "-//W3C//DTD SVG 1.1//EN" "http://www.w3.org/Graphics/SVG/1.1/DTD/svg11.dtd">
<!--Generator: Xara Designer (www.xara.com), SVG filter version: 5.0.0.2-->
<svg stroke-width="0.501" stroke-linejoin="bevel" fill-rule="evenodd" xmlns:xlink="http://www.w3.org/1999/xlink" xmlns="http://www.w3.org/2000/svg" version="1.1" overflow="visible" width="18pt" height="18pt" viewBox="0 0 18 18">
 <defs>
  <marker id="DefaultArrow2" markerUnits="strokeWidth" viewBox="0 0 1 1" markerWidth="1" markerHeight="1" overflow="visible" orient="auto">
   <!-- REF_ARROW_STRAIGHT (-2) -->
   <g transform="scale(0.0092592592)">
    <!-- 1/108 -->
    <path d="M -9 54 L -9 -54 L 117 0 z"/>
   </g>
  </marker>
  <marker id="DefaultArrow3" markerUnits="strokeWidth" viewBox="0 0 1 1" markerWidth="1" markerHeight="1" overflow="visible" orient="auto">
   <!-- REF_ARROW_ANGLED -->
   <g transform="scale(0.0092592592)">
    <path d="M -27 54 L -9 0 L -27 -54 L 135 0 z"/>
   </g>
  </marker>
  <marker id="DefaultArrow4" markerUnits="strokeWidth" viewBox="0 0 1 1" markerWidth="1" markerHeight="1" overflow="visible" orient="auto">
   <!-- REF_ARROW_ROUNDED -->
   <g transform="scale(0.0092592592)">
    <path d="M -9,0 L -9,-45 C -9,-51.708 2.808,-56.580 9,-54 L 117,-9 C 120.916,-7.369 126.000,-4.242 126,0 C 126,4.242 120.916,7.369 117,9 L 9,54 C 2.808,56.580 -9,51.708 -9,45 z"/>
   </g>
  </marker>
  <marker id="DefaultArrow5" markerUnits="strokeWidth" viewBox="0 0 1 1" markerWidth="1" markerHeight="1" overflow="visible" orient="auto">
   <!-- REF_ARROW_SPOT -->
   <g transform="scale(0.0092592592)">
    <path d="M -54, 0 C -54,29.807 -29.807,54 0,54 C 29.807,54 54,29.807 54,0 C 54,-29.807 29.807,-54 0,-54 C -29.807,-54 -54,-29.807 -54,0 z"/>
   </g>
  </marker>
  <marker id="DefaultArrow6" markerUnits="strokeWidth" viewBox="0 0 1 1" markerWidth="1" markerHeight="1" overflow="visible" orient="auto">
   <!-- REF_ARROW_DIAMOND -->
   <g transform="scale(0.0092592592)">
    <path d="M -63,0 L 0,63 L 63,0 L 0,-63 z"/>
   </g>
  </marker>
  <marker id="DefaultArrow7" markerUnits="strokeWidth" viewBox="0 0 1 1" markerWidth="1" markerHeight="1" overflow="visible" orient="auto">
   <!-- REF_ARROW_FEATHER -->
   <g transform="scale(0.0092592592)">
    <path d="M 18,-54 L 108,-54 L 63,0 L 108,54 L 18, 54 L -36,0 z"/>
   </g>
  </marker>
  <marker id="DefaultArrow8" markerUnits="strokeWidth" viewBox="0 0 1 1" markerWidth="1" markerHeight="1" overflow="visible" orient="auto">
   <!-- REF_ARROW_FEATHER2 -->
   <g transform="scale(0.0092592592)">
    <path d="M -36,0 L 18,-54 L 54,-54 L 18,-18 L 27,-18 L 63,-54 L 99,-54 L 63,-18 L 72,-18 L 108,-54 L 144,-54 L 90,0 L 144,54 L 108,54 L 72,18 L 63,18 L 99,54 L 63,54 L 27,18 L 18,18 L 54,54 L 18,54 z"/>
   </g>
  </marker>
  <marker id="DefaultArrow9" markerUnits="strokeWidth" viewBox="0 0 1 1" markerWidth="1" markerHeight="1" overflow="visible" orient="auto">
   <!-- REF_ARROW_HOLLOWDIAMOND -->
   <g transform="scale(0.0092592592)">
    <path d="M 0,45 L -45,0 L 0, -45 L 45, 0 z M 0, 63 L-63, 0 L 0, -63 L 63, 0 z"/>
   </g>
  </marker>
  <filter id="StainedFilter">
   <feBlend mode="multiply" in2="BackgroundImage" in="SourceGraphic" result="blend"/>
   <feComposite in="blend" in2="SourceAlpha" operator="in" result="comp"/>
  </filter>
  <filter id="BleachFilter">
   <feBlend mode="screen" in2="BackgroundImage" in="SourceGraphic" result="blend"/>
   <feComposite in="blend" in2="SourceAlpha" operator="in" result="comp"/>
  </filter>
  <filter id="InvertTransparencyBitmapFilter">
   <feComponentTransfer>
    <feFuncR type="gamma" amplitude="1.055" exponent=".416666666" offset="-0.055"/>
    <feFuncG type="gamma" amplitude="1.055" exponent=".416666666" offset="-0.055"/>
    <feFuncB type="gamma" amplitude="1.055" exponent=".416666666" offset="-0.055"/>
   </feComponentTransfer>
   <feComponentTransfer>
    <feFuncR type="linear" slope="-1" intercept="1"/>
    <feFuncG type="linear" slope="-1" intercept="1"/>
    <feFuncB type="linear" slope="-1" intercept="1"/>
    <feFuncA type="linear" slope="1" intercept="0"/>
   </feComponentTransfer>
   <feComponentTransfer>
    <feFuncR type="gamma" amplitude="1" exponent="2.4" offset="0"/>
    <feFuncG type="gamma" amplitude="1" exponent="2.4" offset="0"/>
    <feFuncB type="gamma" amplitude="1" exponent="2.4" offset="0"/>
   </feComponentTransfer>
  </filter>
 </defs>
 <g id="Document" fill="none" stroke="black" font-family="Times New Roman" font-size="16" transform="scale(1 -1)">
  <g id="Spread" transform="translate(0 -18)">
   <g id="Layer 1">
    <path d="M 25.057,9.418 L 49.057,9.418 L 49.057,-14.582 L 25.057,-14.582 L 25.057,9.418" stroke="none"/>
    <path d="M 33.471,-1.769 C 33.471,0.472 35.351,2.291 37.667,2.291 C 39.983,2.291 41.863,0.472 41.863,-1.769 C 41.863,-4.01 39.983,-5.829 37.667,-5.829 C 35.351,-5.829 33.471,-4.01 33.471,-1.769 Z" stroke="none" stroke-opacity="0.850980" fill="#800000" stroke-width="0" fill-rule="evenodd" stroke-linejoin="round" marker-start="none" marker-end="none" stroke-miterlimit="79.8403193612775" fill-opacity="0.000000"/>
    <path d="M 18.006,0.002 L 18.006,18.003 L 0.005,18.003 L 0.005,0.002 L 18.006,0.002 Z" fill="#282828" stroke-width="0.75" stroke="none" stroke-linejoin="miter" marker-start="none" marker-end="none" stroke-miterlimit="79.8403193612775"/>
    <g id="Group" stroke="#b4b4b4">
     <g id="Group_1" stroke-width="0.852" stroke-miterlimit="79.8403193612775">
      <g id="Group_2" stroke-linejoin="miter" stroke-miterlimit="46.9483568075117">
       <path d="M 7.263,2.634 L 7.259,6.042 L 10.667,6.046 L 10.671,2.638 L 7.263,2.634 Z" marker-start="none" marker-end="none"/>
       <path d="M 8.945,3.914 C 9.18,3.904 9.381,4.085 9.391,4.32 C 9.401,4.555 9.22,4.756 8.984,4.766 C 8.749,4.776 8.548,4.595 8.538,4.36 C 8.528,4.124 8.709,3.924 8.945,3.914 Z" marker-start="none" marker-end="none"/>
      </g>
      <g id="Group_3" stroke-linejoin="miter" stroke-miterlimit="46.9483568075117">
       <path d="M 1.179,12.034 L 1.175,15.442 L 4.583,15.446 L 4.587,12.038 L 1.179,12.034 Z" marker-start="none" marker-end="none"/>
       <path d="M 2.861,13.313 C 3.096,13.303 3.297,13.484 3.307,13.719 C 3.317,13.955 3.136,14.155 2.901,14.165 C 2.665,14.175 2.465,13.994 2.455,13.759 C 2.445,13.524 2.626,13.323 2.861,13.313 Z" marker-start="none" marker-end="none"/>
      </g>
      <g id="Group_4" stroke-linejoin="miter" stroke-miterlimit="46.9483568075117">
       <path d="M 13.429,12.05 L 13.425,15.458 L 16.833,15.462 L 16.837,12.054 L 13.429,12.05 Z" marker-start="none" marker-end="none"/>
       <path d="M 15.11,13.329 C 15.345,13.319 15.546,13.5 15.556,13.735 C 15.566,13.97 15.385,14.171 15.15,14.181 C 14.915,14.191 14.714,14.01 14.704,13.775 C 14.694,13.54 14.875,13.339 15.11,13.329 Z" marker-start="none" marker-end="none"/>
      </g>
      <path d="M 11.613,8.966 L 13.382,12.022 L 13.38,13.513 L 8.993,13.519 L 4.622,13.526 L 4.624,11.989 L 6.358,8.974 L 8.047,6.037 L 9.917,6.038" fill="none" stroke-linecap="round" stroke-linejoin="round"/>
     </g>
     <g id="Group_5">
      <g id="Group_6" stroke-width="0.774" stroke-linejoin="round" stroke-linecap="round" stroke-miterlimit="79.8403193612775">
       <path d="M 9.14,12.214 L 10.269,8.8" fill="none"/>
       <path d="M 9.133,12.21 L 12.113,10.193" fill="none"/>
       <path d="M 10.305,8.753 L 10.807,9.909" fill="none"/>
       <path d="M 12.133,10.135 L 10.882,9.964" fill="none"/>
      </g>
      <path d="M 10.543,8.588 L 13.198,5.076 L 14.938,6.392 L 12.282,9.904 L 10.543,8.588 Z" stroke-linejoin="miter" stroke-width="0.943" fill="#b4b4b4" marker-start="none" marker-end="none" stroke-miterlimit="79.8403193612775"/>
      <path d="M 14.336,3.573 L 14.941,2.772 C 15.094,2.57 15.384,2.53 15.586,2.682 L 16.591,3.444 C 16.793,3.596 16.834,3.886 16.679,4.089 L 16.074,4.89 L 14.336,3.573 Z" stroke-linejoin="miter" stroke-width="0.943" fill="#b4b4b4" marker-start="none" marker-end="none" stroke-miterlimit="79.8403193612775"/>
     </g>
    </g>
   </g>
  </g>
 </g>
</svg>
